<?xml version="1.0" encoding="utf-8"?>
<!-- Generator: Adobe Illustrator 16.0.0, SVG Export Plug-In . SVG Version: 6.00 Build 0)  -->
<!DOCTYPE svg PUBLIC "-//W3C//DTD SVG 1.1//EN" "http://www.w3.org/Graphics/SVG/1.1/DTD/svg11.dtd">
<svg version="1.1" xmlns="http://www.w3.org/2000/svg" xmlns:xlink="http://www.w3.org/1999/xlink" x="0px" y="0px" width="504px"
	 height="360px" viewBox="0 0 504 360" enable-background="new 0 0 504 360" xml:space="preserve">
<g id="Layer_26" display="none">
	<rect x="10.275" y="36.587" display="inline" stroke="#0D9547" stroke-miterlimit="10" width="469.333" height="314.688"/>
</g>
<g id="Ball">
	<g id="Base-Ball">
		<path id="Black_Outline" fill-rule="evenodd" clip-rule="evenodd" d="M233.061,174.011c39.236-0.602,62.783,18.603,74.4,45.6
			c7.365,17.117,8.311,41.379,0.72,59.28c-8.569,20.208-25.022,36.27-46.8,43.2c-5.717,1.819-11.829,2.25-18.48,3.36
			c-13.409,2.237-26.611-2.587-35.04-6.24c-29.099-12.61-56.271-48.679-42.24-92.88c7.217-22.735,24.111-39.208,45.6-47.76
			c4.4-1.2,8.8-2.4,13.2-3.6C227.3,174.651,230.181,174.332,233.061,174.011z"/>
		<path id="Yellow_Ball" fill-rule="evenodd" clip-rule="evenodd" fill="#FEE600" d="M234.261,177.852
			c37.822-0.597,60.42,19.117,71.28,45.6c6.142,14.978,6.854,38.831,0.24,54.24c-8.499,19.801-24.327,35.248-45.84,42
			c-5.448,1.71-11.238,2.072-17.52,3.12c-12.345,2.059-24.794-2.598-32.64-6c-27.603-11.971-53.961-46.117-40.8-88.08
			c6.802-21.687,22.526-37.992,42.96-46.08c4.718-1.868,9.984-3.001,15.36-4.08C229.621,178.332,231.941,178.091,234.261,177.852z"
			/>
	</g>
	<g id="Layer_5">
		<path fill-rule="evenodd" clip-rule="evenodd" d="M257.541,222.419c0,0-4.185,19.554-14.198,18.371
			c0-0.131,7.962-8.286,7.962-8.286S251.577,221.672,257.541,222.419z"/>
	</g>
	<g id="Layer_1">
		<path id="Left_Eye_Outline" fill-rule="evenodd" clip-rule="evenodd" d="M214.101,226.812c16.348,0.149,6.34,27.838,26.88,26.88
			c-0.49,0.904-0.522,1.15-1.44,2.4c-7.081,3.418-11.159,10.448-20.4,12.24c-14.476,2.807-13.923-21.421-12.24-33.36
			c-0.08,0-0.16,0-0.24,0c-2.56,1.04-5.12,2.08-7.68,3.12c0.48-0.56,0.96-1.12,1.44-1.68c3.298-1.444,5.411-4.696,8.16-6.72
			C210.42,228.731,212.261,227.771,214.101,226.812z"/>
		<path id="Right_Eye_Outline" fill-rule="evenodd" clip-rule="evenodd" d="M262.341,227.051c6.25,0.175,11.199,2.802,12.72,8.64
			c-1.12-1.04-2.24-2.08-3.36-3.12c0,0.24,0,0.48,0,0.72c2.877,6.409,6.102,22.521-0.48,27.12c-6.613,4.621-25.893-2.937-29.52-7.2
			c14.451-0.233,9.683-13.843,15.36-22.56C258.36,228.657,260.158,228.222,262.341,227.051z"/>
	</g>
	<g id="VolleyBall_Lines">
		<path id="Volleyball_Lines_2_" fill="none" stroke="#000000" stroke-width="2.5" stroke-miterlimit="10" d="M237.501,180.732
			c-6.792,2.462-15.414,0.293-20.16,4.56c13.212,2.531,36.952,18.362,44.16,27.36c2.107,2.631,4.256,7.625,6.48,9.84
			c2,1.2,4,2.4,6,3.6c5.745,4.545,11.531,13.994,13.68,21.84c0.16-0.08,0.32-0.16,0.48-0.24c2.058-5.354,6.418-9.794,9.6-13.92
			c-1.095-6.567-5.139-13.337-8.16-18.48C279.019,197.312,266.039,180.593,237.501,180.732z"/>
		<path fill="none" stroke="#000000" stroke-width="2.5" stroke-miterlimit="10" d="M211.221,183.131
			c-3.68,1.84-7.36,3.68-11.04,5.52c-4.566,2.86-8.299,6.656-12.48,9.84c0.08,0.16,0.16,0.32,0.24,0.48
			c18-0.301,41.87,13.526,53.28,21.12c3.44,2.64,6.88,5.28,10.32,7.92c1.6-5.65,5.653-8.113,13.2-7.92c0-0.08,0-0.16,0-0.24
			C257.215,205.177,229.593,187.007,211.221,183.131z"/>
		<path fill-rule="evenodd" clip-rule="evenodd" fill="none" stroke="#000000" stroke-width="2.5" stroke-miterlimit="10" d="
			M205.598,204.464c-13.202,11.768-24.951,20.419-32.451,38.292c-10.99,26.189,4.69,58.707,23.847,68.269
			c-2.389-9.19-6.925-17.426-9.342-27.458c-5.636-23.394,3.551-44.329,15.979-54.163c5.154-4.079,11.764-7.458,18.192-10.077
			c3.605-1.26,7.212-2.52,10.817-3.78C223.742,212.698,216.626,204.896,205.598,204.464z"/>
		<path fill="none" stroke="#000000" stroke-width="2.5" stroke-miterlimit="10" d="M263.781,221.292c-1.6,0.48-3.2,0.96-4.8,1.44
			c-4.751,3.201-3.557,12.457-7.92,16.08c-1.186,0.984-6.082,3.731-8.4,1.68c-0.16-0.16-0.32-0.32-0.48-0.48
			c3.374-2.86,8.332-3.405,8.64-9.36c-0.08,0-0.16,0-0.24,0c-8.738,3.215-18.375,7.616-23.04,14.88
			c2.424,5.194,6.105,8.79,13.92,7.92c-0.32,0.64-0.64,1.28-0.96,1.92c-7.583,3.616-11.662,12.061-22.32,12.96
			c0.08,0.16,0.16,0.32,0.24,0.48c4.402,1.453,8.466,3.702,13.68,4.8c18.841,3.968,33.195-7.484,42.72-15.12
			c3.52-3.679,7.041-7.36,10.56-11.04C281.774,239.135,274.115,221.865,263.781,221.292z"/>
		<path fill-rule="evenodd" clip-rule="evenodd" fill="none" stroke="#000000" stroke-width="2.5" stroke-miterlimit="10" d="
			M304.341,222.731c-2.938,8.82-10.701,16.463-15.84,23.52c-0.64,1.2-1.28,2.4-1.92,3.6c-2.644,2.216-6.305,5.354-8.88,8.4
			c3.001,6.191,6.236,10.558,6.24,20.16c8.685-5.958,22.984-20.794,26.16-31.68C312.09,239.913,307.22,226.676,304.341,222.731z"/>
		<path fill="none" stroke="#000000" stroke-width="2.5" stroke-miterlimit="10" d="M311.781,246.731
			c-0.941,7.502-8.467,14.572-12.48,19.68c-11.273,14.351-37.112,32.374-65.52,27.36c-6.932-1.223-12.008-2.802-19.44-3.6
			c0.443,6.614,4.772,29.452,7.68,32.16c6.701,3.479,25.175,2.128,32.4,0.24c23.384-6.11,45.461-23.668,53.28-44.88
			C309.044,274.046,313.441,251.183,311.781,246.731z"/>
	</g>
	<g id="Text" display="none">
		<path id="Black_Outline_Font" display="inline" fill-rule="evenodd" clip-rule="evenodd" d="M302.669,185.63
			c-11.231,0.448-21.413-0.403-24.72-8.4c-0.24-1.839-0.48-3.68-0.72-5.52c-5.614,2.785-16.453,9.118-22.56,2.64
			c-0.108-2.858,0.206-4.444,1.2-6c-6.138,2.079-13.258,8.932-20.4,2.4c-0.125-9.689,8.472-13.467,12.72-19.2
			c-8.352,3.169-14.753,8.075-21.12,13.2c-1.76,1.92-3.52,3.84-5.28,5.76c-3.677,0.093-8.778-0.142-11.04-1.68
			c0.129-5.792,11.3-15.76,14.4-20.4c-8.6,1.847-20.279,13.562-24.72,20.16c-3.633,0.088-9.128,0.459-11.52-0.96
			c0-0.48,0-0.96,0-1.44c-11.767,2.336-19.851,3.994-25.2-6.24c-5.081,3.071-12.489,14.229-20.4,6.96
			c-4.602,3.374-16.775,6.737-17.76-2.64c-3.494,2.918-11.563,14.837-18.48,7.68c-5.074,4-11.325,7.888-17.28,1.44
			c-5.608,4.355-13.485,13.008-24.72,9.12c-2.566-0.888-4.492-1.948-5.52-4.32c-0.08,0.16-0.16,0.32-0.24,0.48
			c-3.263,3.302-8.056,16.372-16.32,12.96c-0.72-0.72-1.44-1.44-2.16-2.16c-1.887-4.009,0.733-11.879,1.92-15.36
			c-1.44,0.56-2.88,1.12-4.32,1.68c-0.8,1.84-1.6,3.68-2.4,5.52c-3.333,7.565-7.112,16.251-13.68,20.64
			c-3.787,2.53-11.625,4.369-14.16-0.72c-3.07-6.161,1.803-14.295,4.08-17.28c3.834-5.026,9.514-8.994,15.12-12.24
			c1.76-0.72,3.52-1.44,5.28-2.16c1.36-2.56,2.72-5.121,4.08-7.68c4.799-7.599,9.601-15.201,14.4-22.8
			c1.958-2.929,10.306-8.152,14.88-5.52c0,0.08,0,0.16,0,0.24c0.007,5.014-2.75,9.486-4.08,13.68
			c-2.16,7.439-4.32,14.881-6.48,22.32c0.16-0.08,0.32-0.16,0.48-0.24c3.134-8.049,14.919-30.456,29.52-24
			c9.116,4.031,3.509,25.578-9.36,16.56c0.022-3.249,1.801-4.772,2.88-7.2c-0.08-0.08-0.16-0.16-0.24-0.24
			c-2.07,1.484-11.664,14.684-6.48,17.76c4.489,2.611,11.083-4.241,12.96-6.48c6.181-7.37,17.401-36.765,32.88-25.44
			c0.64-1.28,1.28-2.56,1.92-3.84c3.757-0.183,9.054-2.188,12-0.48c0,0.08,0,0.16,0,0.24c0.022,6.148-5.017,12.528-7.44,17.28
			c7.411-5.699,18.538-27.82,32.88-17.28c0-0.16,0-0.32,0-0.48c4-6.159,8-12.321,12-18.48c3.728-0.079,10-0.743,12.48,0.72
			c-0.028,4.258-3.688,7.062-5.52,9.84c-4.64,7.439-9.281,14.881-13.92,22.32c7.313-4.291,20.607-26.54,35.28-14.88
			c2.94,2.337,3.414,8.418,1.2,12c-3.682,5.955-10.976,11.61-21.36,10.08c0.08,0.16,0.16,0.32,0.24,0.48
			c7.875,2.391,17.651-3.727,22.08-8.16c4.577-4.582,6.972-11.483,12-15.6c3.858-0.082,9.49,0.115,12,1.68
			c0.003,2.69-1.042,3.104-2.16,4.56c5.84-2.99,21.454-8.164,21.12,4.32c4.643-2.359,19.853-8.003,22.8,0
			c2.594,6.222-5.424,10.579-7.68,13.44c8.248-2.553,15.003-7.604,21.12-12.24c4.203-0.086,9.112,1.328,11.76,3.12
			c0,0.72,0,1.44,0,2.16c-4.4,3.92-8.801,7.84-13.2,11.76c8.511-4.01,29.593-16.576,38.64-4.32c4.759,6.448-3.264,17.918-11.04,15.6
			c-2.265-0.675-3.494-3.32-5.04-4.8c0.061-4.361,4.325-4.01,6.48-6.24c-4.87,0.093-17.455,6.739-15.84,11.28
			c2.577,4.966,13.419,2.699,18.24,1.2c6.799-2.72,13.601-5.44,20.4-8.16c1.932-0.879,3.35-2.621,5.76-3.12
			c5.94-1.23,10.492,1.375,12.96,3.84c-0.08,0.96-0.16,1.92-0.24,2.88c-1.575,3.095-4.733,1.672-7.44,3.6
			c-1.76,2.4-3.52,4.8-5.28,7.2c7.218-0.006,22.193-5.892,25.68-3.6c0,0.08,0,0.16,0,0.24c-0.052,9.21-16.362,8.544-24.48,9.84
			c-2.48,0.08-4.96,0.16-7.44,0.24c-2.939,1.15-4.882,4.041-8.88,4.8C312.691,194.975,303.055,191.433,302.669,185.63z"/>
		<path id="I" display="inline" fill-rule="evenodd" clip-rule="evenodd" fill="none" d="M292.349,133.31
			c5.33-0.208,9.576,0.182,11.04,3.84c3.005,10.029-14.276,10.462-18.96,5.28C284.257,135.243,287.589,135.428,292.349,133.31z"/>
		<path display="inline" fill-rule="evenodd" clip-rule="evenodd" fill="none" d="M188.429,142.43
			c-2.754,2.167-5.607,3.635-7.68,6.48c3.679-1.443,6.432-3.333,8.4-6.48C188.909,142.43,188.669,142.43,188.429,142.43z"/>
		<path display="inline" fill-rule="evenodd" clip-rule="evenodd" fill="none" d="M151.709,142.67
			c-5.086,3.318-11.466,8.239-11.76,16.08c0.08,0,0.16,0,0.24,0c5.031-2.505,11.612-9.219,12-16.08
			C152.029,142.67,151.869,142.67,151.709,142.67z"/>
		<path display="inline" fill-rule="evenodd" clip-rule="evenodd" fill="none" d="M113.309,146.99
			c-4.956,3.469-10.446,8.96-10.56,17.04C106.285,163.22,115.173,150.956,113.309,146.99z"/>
		<path display="inline" fill-rule="evenodd" clip-rule="evenodd" fill="none" d="M45.149,163.07c-0.32,0.64-0.64,1.28-0.96,1.92
			c0.24-0.08,0.48-0.16,0.72-0.24C44.989,164.19,45.069,163.629,45.149,163.07z"/>
		<path display="inline" fill-rule="evenodd" clip-rule="evenodd" fill="none" d="M320.429,179.87c-0.4,0.16-0.8,0.32-1.2,0.48
			c0,0.08,0,0.16,0,0.24c1.061-0.186,0.892-0.145,1.44-0.72C320.589,179.87,320.509,179.87,320.429,179.87z"/>
		<path display="inline" fill-rule="evenodd" clip-rule="evenodd" fill="none" d="M25.949,181.55c-3.533,4.145-8.154,6.6-9.36,13.2
			C18.389,193.685,27.151,183.049,25.949,181.55z"/>
		<path display="inline" fill-rule="evenodd" clip-rule="evenodd" fill="#FEE600" d="M170.429,119.15c3.28,0,6.56,0,9.84,0
			c-5.333,8.481-10.917,16.802-16.32,25.44c-2.033,3.249-5.604,6.95-6,11.52c0.08,0,0.16,0,0.24,0
			c9.205-4.726,13.374-14.763,22.56-19.44c4.539-2.311,12.253-2.961,16.08,0.48c8.201,7.375-10.806,23.819-21.36,17.28
			c0,0.16,0,0.32,0,0.48c-0.514,1.155-0.053,2.586,0.24,3.6c11.316,8.347,26.998-9.068,31.68-15.36
			c1.604-2.156,3.464-6.362,6.24-7.2c2.88,0.32,5.76,0.64,8.64,0.96c-3.52,4.399-7.041,8.8-10.56,13.2
			c6.124-4.475,18.708-16.505,29.04-9.36c1.572,5.497-3.784,8.603-6.24,11.76c7.449-3.338,18.609-15.025,29.28-7.68
			c2.306,8.527-9.985,11.31-11.76,18c0.24,0,0.48,0,0.72,0c10.489-3.94,19.18-8.964,27.36-15.12c3.04,0.8,6.081,1.601,9.12,2.4
			c-3.962,4.981-16.042,11.111-17.76,17.04c0.4,0,0.8,0,1.2,0c4.479-1.76,8.96-3.521,13.44-5.28c5.631-2.623,12.743-8.921,22.32-6
			c10.639,3.246,9.068,16.839-1.92,16.8c-2.123-1.014-3.364-2.406-4.56-4.32c0-0.08,0-0.16,0-0.24c3.344-0.568,5.185-2.667,7.2-4.56
			c-0.08-0.56-0.16-1.12-0.24-1.68c-8.329-1.302-21.718,6.406-19.68,14.16c11.637,8.717,35.021-3.365,43.92-8.64
			c3.717-2.203,11.284-1.231,13.2,1.92c0,0.48,0,0.96,0,1.44c-1.848,0.954-4.667,1.203-6.72,2.4c-2.72,3.52-5.44,7.04-8.16,10.56
			c6.698,0.654,14.097-0.502,19.68-2.16c2.374-0.705,5.713-2.59,8.16-2.16c0,0.08,0,0.16,0,0.24
			c-2.028,6.291-16.522,5.998-23.76,7.2c-2.479,0.08-4.96,0.16-7.44,0.24c-2.942,1.168-4.885,4.019-8.88,4.8
			c-6.31,1.233-16.789-2.809-14.4-8.64c-13.536,3.197-27.922-0.825-24.72-14.88c-5.106,2.358-18.191,10.692-23.76,5.04
			c0.069-6.203,6.255-8.557,9.12-12.24c-6.479,3.279-12.961,6.56-19.44,9.84c-2.615,0.924-6.997,1.262-8.4-0.96
			c-2.481-3.504,11.687-15.994,13.44-19.68c-1.873-2.32-7.706,0.818-9.6,1.92c-5.528,3.218-10.527,6.91-15.36,10.8
			c-1.76,1.92-3.52,3.84-5.28,5.76c-2.8-0.32-5.601-0.64-8.4-0.96c0-0.08,0-0.16,0-0.24c2.352-2.187,15.259-18.388,15.6-21.12
			c-0.4-0.24-0.8-0.48-1.2-0.72c-8.875,2.747-24.105,13.209-27.36,21.12c-2.96-0.08-5.92-0.16-8.88-0.24c0-0.08,0-0.16,0-0.24
			c0.16-0.16,0.32-0.32,0.48-0.48c0.96-1.52,1.92-3.04,2.88-4.56c-7.478,3.905-28.854,10.68-28.56-5.52
			c-2.309,1.576-16.007,16.59-19.92,10.32c-0.605-0.735-0.583-2.327-0.24-3.36c-4.624,3.532-19.89,12.917-18-3.12
			c-3.856,3.027-11.842,16.53-18.72,11.04c-0.08-1.04-0.16-2.08-0.24-3.12c0,0.16,0,0.32,0,0.48
			c-3.144,2.516-15.721,13.869-17.76,1.68c-0.16,0.08-0.32,0.16-0.48,0.24c-3.072,6.667-28.354,19.927-30,4.08
			c-0.24,0.16-0.48,0.32-0.72,0.48c-1.401,3.687-9.839,17.591-15.36,15.36c-0.48-0.48-0.96-0.96-1.44-1.44
			c-1.347-2.909,1.787-14.474,2.88-17.52c-2.72,0.96-5.44,1.92-8.16,2.88c-2.305,7.617-9.32,21.711-15.12,25.92
			c-2.921,2.12-9.846,5.227-12.24,0.48c-3.231-6.405,3.135-14.466,5.76-17.28c3.549-3.804,8.082-6.906,12.72-9.6
			c1.92-0.8,3.84-1.6,5.76-2.4c1.44-2.72,2.88-5.44,4.32-8.16c4.319-6.719,8.64-13.44,12.96-20.16c1.2-1.84,2.4-3.68,3.6-5.52
			c3.12-0.88,6.24-1.76,9.36-2.64c-2.72,8.799-5.44,17.601-8.16,26.4c-1.459,4.688-3.513,9.447-3.6,15.36
			c4.907-1.722,8.29-13.119,11.04-17.76c2.219-3.746,5.642-7.593,9.36-9.84c12.008-7.258,18.937,3.237,12,13.2
			c-2.727,0.813-4.967,0.025-7.2-0.72c1.49-2.228,4.376-5.982,2.64-9.12c-6.19,0.731-14.46,15.411-9.6,22.08
			c15.883,4.415,21.853-20,29.28-27.6c6.214-6.359,11.194-9.331,18.48-2.4c0.8-1.92,1.6-3.84,2.4-5.76c3.12-0.4,6.24-0.8,9.36-1.2
			c-1.685,7.978-9.235,13.712-9.84,22.56c9.302-2.481,23.712-36.877,36.96-19.44C161.789,133.23,166.109,126.189,170.429,119.15z"/>
		<path display="inline" fill-rule="evenodd" clip-rule="evenodd" fill="none" d="M293.309,134.99c4.491-0.232,8.41,0.467,8.64,4.56
			c-3.017,4.684-11.431,6.613-15.84,1.92C286.12,136.333,289.77,136.546,293.309,134.99z"/>
		<path display="inline" fill-rule="evenodd" clip-rule="evenodd" fill="none" d="M188.909,140.27
			c-4.691,2.786-8.399,5.059-11.28,9.6c0.24,0.16,0.48,0.32,0.72,0.48c4.311,2.55,14.533-6.192,12.72-10.08
			C190.349,140.27,189.629,140.27,188.909,140.27z"/>
		<path display="inline" fill-rule="evenodd" clip-rule="evenodd" fill="none" d="M151.469,140.75
			c-5.617,3.335-15.188,10.37-12.96,19.44c0.24,0.08,0.48,0.16,0.72,0.24c4.922,1.61,15.701-12.964,14.64-18.72
			c-0.16-0.24-0.32-0.48-0.48-0.72C152.749,140.91,152.109,140.83,151.469,140.75z"/>
		<path display="inline" fill-rule="evenodd" clip-rule="evenodd" fill="none" d="M113.069,145.07
			c-4.514,2.706-15.535,13.411-11.28,20.88c0.24,0.08,0.48,0.16,0.72,0.24c5.75-1.053,14.264-13.521,12.48-20.64
			C114.349,145.39,113.709,145.229,113.069,145.07z"/>
		<path display="inline" fill-rule="evenodd" clip-rule="evenodd" fill="none" d="M50.669,149.87
			c-3.52,6.239-7.04,12.48-10.56,18.72c2.16-0.8,4.32-1.6,6.48-2.4C47.949,160.75,49.309,155.309,50.669,149.87z"/>
		<path display="inline" fill-rule="evenodd" clip-rule="evenodd" fill="none" d="M325.949,175.07c-3.375,2.554-9.33,5.114-13.92,6
			c0,0.08,0,0.16,0,0.24c3.04,0.4,6.08,0.8,9.12,1.2C322.123,180.503,326.312,177.128,325.949,175.07z"/>
		<path display="inline" fill-rule="evenodd" clip-rule="evenodd" fill="none" d="M30.749,176.51
			c-5.658,4.227-17.52,9.536-15.84,19.68c4.334,4.066,11.719-11.481,13.2-14.4C28.989,180.03,29.869,178.27,30.749,176.51z"/>
		<path display="inline" fill-rule="evenodd" clip-rule="evenodd" fill="none" d="M311.069,185.63c-0.24,0.24-0.48,0.48-0.72,0.72
			c0.206,1.086-0.028,0.714,0.72,1.2c2.165,0.913,4.154-0.846,5.76-1.44c0-0.08,0-0.16,0-0.24
			C314.909,185.79,312.989,185.709,311.069,185.63z"/>
		<path display="inline" fill-rule="evenodd" clip-rule="evenodd" fill="#FFFFFF" d="M166.109,113.63
			c3.622-0.079,9.609-0.692,12,0.72c0,0.48,0,0.96,0,1.44c-6.566,10.472-14.541,20.393-20.16,31.68
			c8.074-3.896,20.871-27.862,36-15.84c3.27,2.598,3.178,8.813,0.72,12.24c-3.92,5.464-11.299,11.423-21.36,9.12
			c0.24,0.4,0.48,0.8,0.72,1.2c17.238,5.237,26.146-16.87,34.56-23.76c3.672-0.059,9.119,0.181,11.52,1.68c0,0.56,0,1.12,0,1.68
			c-1.12,1.28-2.24,2.56-3.36,3.84c4.653-2.425,15.711-7.889,21.12-2.16c1.276,1.352,1.54,3.862,0.72,6
			c4.59-2.326,20.192-8.884,23.28-0.48c2.272,5.515-6.897,11.57-9.12,14.4c5.759-2.64,11.521-5.28,17.28-7.92
			c1.919-1.76,3.84-3.52,5.76-5.28c3.912-0.037,8.767,1.418,11.28,3.12c0,0.56,0,1.12,0,1.68c-4.879,4.319-9.76,8.64-14.64,12.96
			c9.577-3.054,24.466-15.68,36.72-7.68c2.011,1.313,4.148,2.921,4.8,5.52c2.267,9.031-10.425,16.013-15.84,8.64
			c-0.999-1.359-1.563-2.11-0.48-3.84c2.36-0.375,4.748-1.81,6-3.36c0-0.08,0-0.16,0-0.24c-0.64,0-1.28,0-1.92,0
			c-6.604,2.102-12.63,4.593-15.12,10.8c2.232,5.348,11.901,4.328,17.52,2.64c6.479-2.48,12.961-4.96,19.44-7.44
			c2.8-1.44,5.601-2.88,8.4-4.32c5.674-1.231,10.165,1.461,12.48,3.84c-0.08,0.8-0.16,1.6-0.24,2.4
			c-1.577,3.094-4.733,1.671-7.44,3.6c-1.92,2.64-3.84,5.28-5.76,7.92c3.52-0.4,7.04-0.8,10.56-1.2c4.08-1.2,8.161-2.4,12.24-3.6
			c1.808-0.392,2.53,0.414,3.36,0.96c0,0.08,0,0.16,0,0.24c-0.227,7.815-12.485,7.437-19.44,8.64c-4.16,0.32-8.32,0.64-12.48,0.96
			c-1.84,1.28-3.68,2.56-5.52,3.84c-8.927,3.674-17.993-1.039-20.64-7.2c-12.483,3.75-25.239-2.447-24.96-13.92
			c-5.939,2.509-16.49,9.558-22.8,2.88c-0.133-4.17,0.974-5.074,2.64-7.2c-5.349,3.262-15.3,9.597-21.84,3.6
			c-0.1-9.487,9.207-13.452,13.2-19.44c-8.837,2.195-15.82,8.405-22.08,13.44c-1.76,1.92-3.52,3.84-5.28,5.76
			c-3.488,0.075-8.405-0.213-10.56-1.68c0-0.48,0-0.96,0-1.44c4.959-6.399,9.92-12.801,14.88-19.2c-0.08-0.08-0.16-0.16-0.24-0.24
			c-10.349,4.599-19.405,11.699-25.44,20.64c-3.497,0.087-8.746,0.403-11.04-0.96c-0.08-0.56-0.16-1.12-0.24-1.68
			c-9.027,3.693-22.799,3.139-24.96-6.48c-4.317,2.978-7.288,8.036-12.96,9.6c-3.122,0.861-5.507-0.189-6.96-1.68
			c-0.24-0.24-0.48-0.48-0.72-0.72c-7.444,4.203-13.274,7.162-17.76-2.64c-0.4,0.32-0.8,0.64-1.2,0.96
			c-2.197,4.883-11.417,12.174-17.28,6.72c-5.819,4.59-10.535,7.789-17.28,1.44c-5.745,4.453-22.795,18.332-30.24,4.8
			c-0.16,0.08-0.32,0.16-0.48,0.24c-1.483,3.902-9.222,16.223-15.84,13.44c-0.72-0.72-1.44-1.44-2.16-2.16
			c-1.876-3.984,0.902-12.347,2.16-15.84c-10.757,4.979-10.789,20.868-20.4,27.84c-3.668,2.661-11.694,5.188-14.4-0.24
			c-2.99-6,1.845-13.87,4.08-16.8c3.834-5.026,9.514-8.994,15.12-12.24c1.76-0.72,3.52-1.44,5.28-2.16
			c1.36-2.56,2.72-5.12,4.08-7.68c4.639-7.359,9.28-14.721,13.92-22.08c2.045-3.07,9.982-9.03,14.88-6.24c0,0.08,0,0.16,0,0.24
			c-3.6,12.319-7.2,24.641-10.8,36.96c2.612-2.334,3.519-5.354,5.04-8.88c2.731-6.332,7.205-12.005,13.2-15.12
			c2.884-1.499,9.912-2.88,13.2-0.48c7.576,5.53,1.36,23.364-10.08,15.36c0-0.48,0-0.96,0-1.44c1.251-1.979,2.607-3.73,3.12-6.48
			c-0.08,0-0.16,0-0.24,0c-2.259,1.4-12.895,15.34-7.2,18.72c3.456,2.145,8.16-1.961,10.32-3.6c8.768-6.65,10.84-19.619,19.44-26.4
			c3.604-2.841,11.981-6.984,16.08-1.68c0.16-0.08,0.32-0.16,0.48-0.24c0.64-1.28,1.28-2.56,1.92-3.84
			c3.656-0.178,8.74-2.084,11.52-0.48c0,0.08,0,0.16,0,0.24c-0.09,5.116-6,13.971-8.16,18.48c7.759-5.979,11.744-16.068,21.36-20.16
			c4.082-1.737,10.565-1.359,12.24,2.16c0.08-0.16,0.16-0.32,0.24-0.48C157.949,126.271,162.029,119.949,166.109,113.63z"/>
		<path display="inline" fill-rule="evenodd" clip-rule="evenodd" fill="none" d="M288.989,129.47
			c5.153-0.207,9.15,0.309,10.56,3.84c2.798,9.402-13.947,9.83-18.48,4.8C280.917,131.335,284.479,131.474,288.989,129.47z"/>
		<path display="inline" fill-rule="evenodd" clip-rule="evenodd" fill="none" d="M186.029,137.63
			c-3.778,2.222-7.433,3.896-9.6,7.68C178.641,144.614,187.606,139.654,186.029,137.63z"/>
		<path display="inline" fill-rule="evenodd" clip-rule="evenodd" fill="none" d="M147.869,138.35
			c-4.967,3.193-12.247,9.072-11.76,16.56c0.32,0,0.64,0,0.96,0c5.599-4.514,9.516-8.327,12-16.08c-0.08-0.16-0.16-0.32-0.24-0.48
			C148.509,138.35,148.189,138.35,147.869,138.35z"/>
		<path display="inline" fill-rule="evenodd" clip-rule="evenodd" fill="none" d="M109.469,142.67
			c-2.521,1.707-13.676,12.846-10.08,17.76c4.914-2.459,11.426-10.913,10.8-17.76C109.949,142.67,109.709,142.67,109.469,142.67z"/>
		<path display="inline" fill-rule="evenodd" clip-rule="evenodd" fill="none" d="M42.269,157.07c-0.72,1.44-1.44,2.88-2.16,4.32
			c0.08,0,0.16,0,0.24,0c0.48-0.24,0.96-0.48,1.44-0.72C41.949,159.47,42.109,158.27,42.269,157.07z"/>
		<path display="inline" fill-rule="evenodd" clip-rule="evenodd" fill="none" d="M317.549,175.07c-0.88,0.4-1.76,0.8-2.64,1.2
			c0.08,0.16,0.16,0.32,0.24,0.48c0.72-0.16,1.44-0.32,2.16-0.48C317.579,175.427,318.239,175.449,317.549,175.07z"/>
		<path display="inline" fill-rule="evenodd" clip-rule="evenodd" fill="none" d="M22.829,176.75
			c-3.835,4.064-9.636,7.02-10.08,14.4C15.22,189.904,24.292,178.752,22.829,176.75z"/>
		<path display="inline" fill-rule="evenodd" clip-rule="evenodd" d="M166.829,115.07c3.28,0,6.56,0,9.84,0
			c-5.333,8.481-10.917,16.803-16.32,25.44c-2.032,3.249-5.604,6.95-6,11.52c0.08,0,0.16,0,0.24,0
			c9.205-4.726,13.374-14.763,22.56-19.44c4.539-2.311,12.254-2.961,16.08,0.48c8.201,7.375-10.806,23.819-21.36,17.28
			c0,0.16,0,0.32,0,0.48c-0.514,1.155-0.053,2.586,0.24,3.6c11.316,8.347,26.999-9.068,31.68-15.36
			c1.604-2.156,3.464-6.362,6.24-7.2c2.879,0.32,5.76,0.64,8.64,0.96c-3.52,4.4-7.04,8.8-10.56,13.2
			c6.124-4.475,18.708-16.505,29.04-9.36c1.572,5.497-3.784,8.602-6.24,11.76c7.449-3.338,18.609-15.025,29.28-7.68
			c2.306,8.527-9.984,11.31-11.76,18c0.24,0,0.48,0,0.72,0c10.49-3.94,19.18-8.964,27.36-15.12c3.04,0.8,6.08,1.6,9.12,2.4
			c-3.962,4.981-16.042,11.112-17.76,17.04c0.4,0,0.8,0,1.2,0c4.48-1.76,8.96-3.521,13.44-5.28c5.631-2.623,12.743-8.921,22.32-6
			c10.639,3.246,9.068,16.84-1.92,16.8c-2.122-1.014-3.364-2.406-4.56-4.32c0-0.08,0-0.16,0-0.24c3.344-0.568,5.185-2.667,7.2-4.56
			c-0.08-0.56-0.16-1.12-0.24-1.68c-8.329-1.302-21.718,6.406-19.68,14.16c11.637,8.717,35.021-3.365,43.92-8.64
			c3.717-2.203,11.284-1.23,13.2,1.92c0,0.48,0,0.96,0,1.44c-1.848,0.954-4.667,1.202-6.72,2.4c-2.72,3.52-5.44,7.04-8.16,10.56
			c6.698,0.653,14.097-0.502,19.68-2.16c2.374-0.705,5.713-2.59,8.16-2.16c0,0.08,0,0.16,0,0.24
			c-2.027,6.291-16.522,5.998-23.76,7.2c-2.48,0.08-4.96,0.16-7.44,0.24c-2.942,1.168-4.886,4.019-8.88,4.8
			c-6.31,1.233-16.789-2.809-14.4-8.64c-13.536,3.196-27.922-0.825-24.72-14.88c-5.107,2.358-18.192,10.692-23.76,5.04
			c0.069-6.203,6.255-8.557,9.12-12.24c-6.479,3.28-12.96,6.56-19.44,9.84c-2.615,0.924-6.997,1.262-8.4-0.96
			c-2.481-3.504,11.687-15.994,13.44-19.68c-1.873-2.32-7.707,0.818-9.6,1.92c-5.528,3.218-10.527,6.91-15.36,10.8
			c-1.76,1.92-3.521,3.84-5.28,5.76c-2.8-0.32-5.6-0.64-8.4-0.96c0-0.08,0-0.16,0-0.24c2.352-2.187,15.259-18.387,15.6-21.12
			c-0.4-0.24-0.8-0.48-1.2-0.72c-8.875,2.747-24.105,13.209-27.36,21.12c-2.96-0.08-5.92-0.16-8.88-0.24c0-0.08,0-0.16,0-0.24
			c0.16-0.16,0.32-0.32,0.48-0.48c0.959-1.52,1.92-3.04,2.88-4.56c-7.478,3.905-28.854,10.68-28.56-5.52
			c-2.309,1.576-16.007,16.59-19.92,10.32c-0.605-0.735-0.583-2.326-0.24-3.36c-4.624,3.532-19.89,12.917-18-3.12
			c-3.856,3.027-11.842,16.53-18.72,11.04c-0.08-1.04-0.16-2.08-0.24-3.12c0,0.16,0,0.32,0,0.48
			c-3.144,2.517-15.721,13.869-17.76,1.68c-0.16,0.08-0.32,0.16-0.48,0.24c-3.072,6.667-28.354,19.927-30,4.08
			c-0.24,0.16-0.48,0.32-0.72,0.48c-1.401,3.687-9.839,17.591-15.36,15.36c-0.48-0.48-0.96-0.96-1.44-1.44
			c-1.347-2.909,1.787-14.474,2.88-17.52c-2.72,0.96-5.44,1.92-8.16,2.88c-2.305,7.617-9.32,21.711-15.12,25.92
			c-2.921,2.12-9.846,5.227-12.24,0.48c-3.231-6.405,3.135-14.466,5.76-17.28c3.549-3.804,8.082-6.906,12.72-9.6
			c1.92-0.8,3.84-1.6,5.76-2.4c1.439-2.72,2.88-5.44,4.32-8.16c4.319-6.719,8.64-13.44,12.96-20.16c1.2-1.84,2.4-3.68,3.6-5.52
			c3.12-0.88,6.24-1.76,9.36-2.64c-2.72,8.799-5.44,17.601-8.16,26.4c-1.459,4.688-3.513,9.447-3.6,15.36
			c4.907-1.723,8.29-13.119,11.04-17.76c2.219-3.746,5.642-7.593,9.36-9.84c12.009-7.258,18.937,3.237,12,13.2
			c-2.727,0.814-4.967,0.025-7.2-0.72c1.49-2.228,4.376-5.982,2.64-9.12c-6.19,0.731-14.46,15.411-9.6,22.08
			c15.883,4.415,21.853-20,29.28-27.6c6.213-6.358,11.194-9.331,18.48-2.4c0.8-1.92,1.6-3.84,2.4-5.76c3.12-0.4,6.24-0.8,9.36-1.2
			c-1.685,7.978-9.235,13.712-9.84,22.56c9.302-2.481,23.712-36.877,36.96-19.44C158.188,129.15,162.509,122.109,166.829,115.07z"/>
		<path display="inline" fill-rule="evenodd" clip-rule="evenodd" fill="none" d="M289.709,130.91c4.491-0.232,8.41,0.467,8.64,4.56
			c-3.017,4.684-11.431,6.613-15.84,1.92C282.52,132.253,286.169,132.466,289.709,130.91z"/>
		<path display="inline" fill-rule="evenodd" clip-rule="evenodd" fill="#FFFFFF" d="M185.309,136.19
			c-4.691,2.786-8.399,5.059-11.28,9.6c0.24,0.16,0.48,0.32,0.72,0.48c4.311,2.551,14.533-6.192,12.72-10.08
			C186.749,136.19,186.029,136.19,185.309,136.19z"/>
		<path display="inline" fill-rule="evenodd" clip-rule="evenodd" fill="#FFFFFF" d="M147.869,136.67
			c-5.617,3.334-15.188,10.37-12.96,19.44c0.24,0.08,0.48,0.16,0.72,0.24c4.922,1.61,15.701-12.964,14.64-18.72
			c-0.16-0.24-0.32-0.48-0.48-0.72C149.149,136.83,148.509,136.75,147.869,136.67z"/>
		<path display="inline" fill-rule="evenodd" clip-rule="evenodd" fill="#FFFFFF" d="M109.469,140.99
			c-4.514,2.706-15.535,13.411-11.28,20.88c0.24,0.08,0.48,0.16,0.72,0.24c5.75-1.052,14.265-13.521,12.48-20.64
			C110.749,141.31,110.109,141.15,109.469,140.99z"/>
		<path display="inline" fill-rule="evenodd" clip-rule="evenodd" fill="#FFFFFF" d="M47.069,145.79
			c-3.52,6.24-7.04,12.481-10.56,18.72c2.16-0.8,4.32-1.6,6.48-2.4C44.349,156.67,45.709,151.229,47.069,145.79z"/>
		<path display="inline" fill-rule="evenodd" clip-rule="evenodd" fill="#FFFFFF" d="M322.349,170.99
			c-3.375,2.554-9.33,5.114-13.92,6c0,0.08,0,0.16,0,0.24c3.04,0.4,6.08,0.8,9.12,1.2
			C318.522,176.424,322.712,173.048,322.349,170.99z"/>
		<path display="inline" fill-rule="evenodd" clip-rule="evenodd" fill="#FFFFFF" d="M27.149,172.43
			c-5.658,4.227-17.52,9.536-15.84,19.68c4.334,4.066,11.719-11.481,13.2-14.4C25.389,175.95,26.269,174.189,27.149,172.43z"/>
		<path display="inline" fill-rule="evenodd" clip-rule="evenodd" fill="none" d="M307.469,181.55c-0.24,0.24-0.48,0.48-0.72,0.72
			c0.206,1.086-0.028,0.714,0.72,1.2c2.164,0.913,4.154-0.846,5.76-1.44c0-0.08,0-0.16,0-0.24
			C311.309,181.709,309.389,181.63,307.469,181.55z"/>
		<path display="inline" fill-rule="evenodd" clip-rule="evenodd" fill="none" d="M374.669,72.35
			c30.222-0.188,61.378-2.467,79.92,9.12c20.646,12.901,39.757,44.15,26.64,77.52c-5.714,14.539-13.769,21.007-24.24,30.48
			c3.759,3.52,7.52,7.041,11.28,10.56c0,0.08,0,0.16,0,0.24c-11.839,0-23.681,0-35.52,0c-8.879,0.001-17.937,0.383-25.2-1.44
			c-12.274-3.081-21.093-8.586-29.52-15.36c-4.252-3.418-7.603-8.477-10.56-13.2c-19.595-31.292-7.23-71.016,18.48-87.12
			C383.054,79.608,376.305,76.727,374.669,72.35z"/>
	</g>
	<g id="Cap">
		<path id="Cap_Outline" fill-rule="evenodd" clip-rule="evenodd" stroke="#FFFFFF" stroke-width="0.6" stroke-miterlimit="10" d="
			M263.541,141.131c5.269,0.188,14.259,7.551,18.48,10.08c13.438,7.919,26.881,15.841,40.32,23.76
			c4.947,2.964,13.118,5.583,16.56,10.08c-0.588,2.497-0.934,3.753-0.72,7.2c1.097,0.16,1.05,0.255,1.68,0.72
			c-0.24,7.439-0.48,14.881-0.72,22.32c-0.48,3.759-0.96,7.521-1.44,11.28c0.644,3.19,5.111,8.071,4.56,9.84
			c-0.64-0.56-1.28-1.12-1.92-1.68c-0.24-0.32-0.48-0.64-0.72-0.96c1.049,2.293,2.153,4.346,4.08,5.76
			c-0.24,0.24-0.48,0.48-0.72,0.72c-3.847-2.939-3.759-7.07-6-11.76c0,0.16,0,0.32,0,0.48c-0.545,0.936-1.13,3.042-0.72,4.08
			c1.279,2.944,4.711,6.316,7.2,8.16c-0.16,0.24-0.32,0.48-0.48,0.72c-0.08,0-0.16,0-0.24,0c-2.48-2.64-4.96-5.281-7.44-7.92
			c-0.16,0.56-0.32,1.12-0.48,1.68c0.16,0.16,0.32,0.32,0.48,0.48c1.12,1.2,2.24,2.4,3.36,3.6c-0.24,0.24-0.48,0.48-0.72,0.72
			c-0.96-0.88-1.92-1.76-2.88-2.64c0.655,2.38,3.085,8.039,2.4,8.88c-0.24-0.16-0.48-0.32-0.72-0.48
			c-0.727-2.375-2.662-4.281-4.32-5.76c0,0.16,0,0.32,0,0.48c-0.811,2.572,2.284,4.587,1.2,6c-0.24-0.16-0.48-0.32-0.72-0.48
			c-0.56-1.28-1.12-2.56-1.68-3.84c-1.12,1.28-2.24,2.56-3.36,3.84c-0.24-0.24-0.48-0.48-0.72-0.72c0.8-0.8,1.6-1.6,2.4-2.4
			c0.24-0.4,0.48-0.8,0.72-1.2c-0.958,0.213-0.377,0.536-1.2-0.24c0.32-0.32,0.64-0.64,0.96-0.96c0.488-1.232,0.814-2.191,0.48-3.84
			c-0.08,0-0.16,0-0.24,0c-0.602,3.953-2.885,8.517-6,10.08c-0.08-0.24-0.16-0.48-0.24-0.72c1.99-2.188,3.636-4.095,4.56-7.44
			c-1.065,0.769-2.175,1.701-3.36,1.68c0-0.08,0-0.16,0-0.24c0.08-0.24,0.16-0.48,0.24-0.72c8.641-3.182,2.823-15.814,3.6-24
			c0.494-5.208,1.668-9.615,3.84-13.2c0.648-1.069,2.364-2.145,2.88-3.12c0.08-2.16,0.16-4.32,0.24-6.48
			c0.477-0.636,0.27-0.471,1.2-0.72c-0.24-1.76-0.48-3.52-0.72-5.28c-10.959,1.12-21.921,2.24-32.88,3.36
			c-0.154,3.664-2.008,15.176-0.48,16.56c1.12,1.44,2.24,2.88,3.36,4.32c-0.03,1.437-0.225,1.609-0.72,2.4c-0.08,0-0.16,0-0.24,0
			c-3.28-0.96-6.561-1.92-9.84-2.88c-7.665-1.928-19.376-1.704-27.12,0c-5.218,1.148-26.676,9.671-28.08,9.36
			c-2.394-0.808-6.857-8.767-8.64-11.04c-5.29-6.744-13.043-13.437-21.36-17.04c-3.44-0.959-6.88-1.92-10.32-2.88
			c-2.64,0-5.28,0-7.92,0c-0.85-0.406-0.811-0.983-0.96-2.16c2.092-1.963,6.511-2.429,8.4-4.56c1.84-4.32,3.68-8.641,5.52-12.96
			c-9.599-5.759-19.201-11.521-28.8-17.28c0.08-0.48,0.16-0.96,0.24-1.44c0.16-0.16,0.32-0.32,0.48-0.48
			C205.938,147.212,234.744,144.171,263.541,141.131z"/>
		<path fill-rule="evenodd" clip-rule="evenodd" fill="none" d="M253.701,166.812c3.16-0.145,5.812,0.057,7.2,1.68
			c-0.16,0.24-0.32,0.48-0.48,0.72c-2.334,0.822-10.403,2.037-9.36-1.44C251.94,167.451,252.821,167.131,253.701,166.812z"/>
		<path fill-rule="evenodd" clip-rule="evenodd" fill="none" d="M301.941,190.332c-0.4,5.04-0.8,10.081-1.2,15.12
			c-0.48-0.08-0.96-0.16-1.44-0.24c1.92,2.32,3.84,4.64,5.76,6.96c-12.652-3.918-27.962-5.981-42.48-1.68
			c-6.925,2.052-15.869,7.246-22.08,8.16c-5.061-12.49-27.776-33.59-47.28-30.96c0-0.16,0-0.32,0-0.48
			c7.492-2.332,11.576-9.151,13.2-17.04c14.638,8.479,29.281,16.961,43.92,25.44C267.539,193.852,284.743,192.091,301.941,190.332z"
			/>
		<path fill-rule="evenodd" clip-rule="evenodd" fill="none" d="M262.341,141.131c6.789-0.088,15.513,7.356,20.4,10.32
			c12.879,7.6,25.761,15.201,38.64,22.8c5.464,3.273,13.963,6.066,17.76,11.04c-0.439,0.979-0.307,1.081-1.44,1.44
			c0.24,1.84,0.48,3.68,0.72,5.52c0.48,0.16,0.96,0.32,1.44,0.48c0.11,4.307-0.102,7.497-1.92,9.84c0.08-0.88,0.16-1.76,0.24-2.64
			c-0.32,0.08-0.64,0.16-0.96,0.24c-0.32,3.6-0.64,7.2-0.96,10.8c0.24-1.36,0.48-2.72,0.72-4.08c0.16,0,0.32,0,0.48,0
			c0.042,4.35,0.564,15.375-0.96,18.24c-0.08,0-0.16,0-0.24,0c-0.24-1.2-0.48-2.4-0.72-3.6c-0.259,4.269-1.824,9.328-0.96,14.64
			c0.56,1.92,1.12,3.84,1.68,5.76c-0.24,0.08-0.48,0.16-0.72,0.24c-0.08-0.16-0.16-0.32-0.24-0.48
			c-4.807-4.429,0.371-17.311-1.68-22.8c-0.48,2.32-0.96,4.64-1.44,6.96c-0.08,0-0.16,0-0.24,0
			c-2.181-14.102,1.211-14.258,4.08-25.44c-0.08-2.08-0.16-4.161-0.24-6.24c0.061-1.886,0.449-1.034,1.2-1.92
			c-0.16-1.76-0.32-3.52-0.48-5.28c-10.959,1.2-21.921,2.4-32.88,3.6c-0.4,5.28-0.8,10.561-1.2,15.84
			c1.416,0.985,4.768,4.139,4.08,6.24c-0.32,0.4-0.64,0.8-0.96,1.2c-3.84-1.12-7.681-2.24-11.52-3.36
			c-9.186-2.029-21.084-0.88-29.28,1.2c-4.582,1.163-22.264,9.271-24.72,8.4c-2.64-3.52-5.281-7.041-7.92-10.56
			c-5.335-6.841-12.972-13.59-21.36-17.28c-3.568-1.569-7.405-2.312-11.76-3.12c-2.276-0.422-6.188,1.107-7.44-0.24
			c-0.739-0.794-0.188-1.771,0-2.64c2.64-1.28,5.28-2.56,7.92-3.84c0.938-0.858,5.423-12.403,5.28-13.44
			c-7.359-4.319-14.721-8.64-22.08-12.96c-2.424-1.384-7.405-2.706-5.76-6C205.378,147.052,233.864,144.091,262.341,141.131z"/>
		<path fill-rule="evenodd" clip-rule="evenodd" fill="#6C6C6C" stroke="#000000" stroke-miterlimit="10" d="M263.301,142.812
			c-28.237,2.959-56.483,5.92-84.72,8.88c0.16,0,0.32,0,0.48,0c23.758,14.079,47.522,28.162,71.28,42.24
			c28.717-2.88,57.443-5.761,86.16-8.64c-0.08-0.16-0.16-0.32-0.24-0.48c-20.865-6.561-45.008-8.417-66.72-13.44
			c-2.56-0.4-5.121-0.8-7.68-1.2c-0.822,0.27-1.93,1.397-3.12,1.68c-3.314,0.787-11.288,0.016-10.08-4.08
			c0.983-3.335,9.787-3.676,12.72-1.68c0.896,0.61,0.701,1.98,1.44,2.64c8.399,1.52,16.801,3.04,25.2,4.56
			c13.999,2.72,28.001,5.44,42,8.16c-16.159-9.519-32.322-19.041-48.48-28.56C277.263,150.304,268.509,143.228,263.301,142.812z"/>
		<path fill-rule="evenodd" clip-rule="evenodd" fill="#6C6C6C" stroke="#231F20" stroke-miterlimit="10" d="M253.941,167.051
			c-0.96,0.48-1.92,0.96-2.88,1.44c0.08,0.16,0.16,0.32,0.24,0.48c2.958,0.953,5.923,0.94,8.88,0c0.08-0.16,0.16-0.32,0.24-0.48
			C259.069,167.13,256.765,166.964,253.941,167.051z"/>
		<path fill="#6C6C6C" stroke="#000000" stroke-miterlimit="10" d="M206.661,170.651c-2.063,7.227-4.956,14.066-12.24,16.32
			c0,0.08,0,0.16,0,0.24c25.95-0.399,34.665,17.396,46.56,31.2c19.382-8.801,38.371-14.385,63.12-6.96
			c-1.76-2.16-3.52-4.32-5.28-6.48c0.56,0.08,1.12,0.16,1.68,0.24c0.4-4.879,0.8-9.761,1.2-14.64
			c-12.799,1.28-25.601,2.56-38.4,3.84c-3.292,0.543-11.101,2.552-14.16,1.2C234.982,187.292,220.819,178.971,206.661,170.651z"/>
		<g id="Layer_22">
			<g>
				<g>
					<path fill="none" stroke="#FDE600" stroke-miterlimit="10" d="M336.501,200.171l1.636,0.24c0,0-7.683,39.31-4.552,34.838
						s3.636-35.079,3.636-35.079"/>
				</g>
			</g>
		</g>
		<g id="Layer_24">
			<g>
				<g>
					<path fill="none" stroke="#6C6C6C" stroke-miterlimit="10" d="M335.301,241.691c-8.574-14.184-0.426-39.816-0.426-39.816"/>
					<path fill="none" stroke="#6C6C6C" stroke-miterlimit="10" d="M332.695,204.602c8.574,13.212,0.426,37.09,0.426,37.09"/>
				</g>
			</g>
		</g>
		<g id="Layer_23">
			<g>
				<g>
					<path fill="none" stroke="#000000" stroke-miterlimit="10" d="M332,236.25c-3.292-2.358,4.021-35.838,4.021-35.838
						s0.72,26.64-5.52,36.72"/>
				</g>
			</g>
		</g>
		<g id="Layer_27">
			<path fill="none" stroke="#FEE600" stroke-miterlimit="10" d="M337.906,203.982c0,0-8.833,16.328-3.5,25.662"/>
		</g>
	</g>
	<g id="Spikeball">
		<path fill-rule="evenodd" clip-rule="evenodd" fill="none" d="M446.181,34.091c11.839,0,23.681,0,35.52,0
			c7.185,0,14.872-0.533,21.12,0.72c21.816,4.374,35.646,15.24,45.36,31.68c5.557,9.404,11.041,24.992,7.92,41.04
			c-2.636,13.555-7.768,23.468-14.88,32.4c-1.107,1.391-12.72,11.52-12.72,11.52c3.759,3.52,7.52,7.041,11.28,10.56
			c-31.13,0.195-61.58,2.318-80.64-9.6c-20.426-12.772-38.907-44.351-25.92-77.28c5.396-13.68,14.088-21.439,24.24-30.24
			C453.701,41.292,449.94,37.691,446.181,34.091z"/>
	</g>
	<g id="Mouth_1_">
		<path fill-rule="evenodd" clip-rule="evenodd" fill="none" d="M276.501,264.491c0.16,2.4,0.32,4.8,0.48,7.2
			c-6.141,0.58-5.954,3.163-7.44,8.4c-6.431-0.024-6.912,0.771-10.08,3.84c-3.852-1.299-5.258,0.147-8.64,0.96
			c-2.762-3.203-8.261,1.007-11.04,0.72c-1.12-0.56-2.24-1.12-3.36-1.68c-3.04,0.32-6.081,0.64-9.12,0.96
			c-4.481-1.324-4.177-4.208-12.24-4.32c0,2.4,0,4.8,0,7.2c10.377,5.595,35.972,5.909,44.88,0.48c0.72,0.16,1.44,0.32,2.16,0.48
			c3.273-0.504,8.105-2.982,9.12-6c3.551,0.894,8.174-4.966,7.92-8.4c0.8-0.16,1.6-0.32,2.4-0.48c-0.974-3.578-1.68-6.679-3.12-9.6
			C277.781,264.332,277.141,264.412,276.501,264.491z"/>
		<path fill-rule="evenodd" clip-rule="evenodd" fill="none" d="M202.101,270.491c-1.36,0.32-2.72,0.64-4.08,0.96
			c-0.778,2.384-2.866,5.687-1.44,8.64c1.6,1.2,3.2,2.4,4.8,3.6c0.8-0.32,1.6-0.64,2.4-0.96c0.721,3.879,5.335,4.538,8.64,5.76
			c0.072-3.536,0.582-9.55-0.48-11.52c-2-0.32-4-0.64-6-0.96c-0.465-1.729-1.359-4.519-2.88-5.28
			C202.741,270.651,202.421,270.571,202.101,270.491z"/>
		<path fill-rule="evenodd" clip-rule="evenodd" fill="none" d="M278.901,278.171c-1.52,1.6-3.041,3.2-4.56,4.8
			c0.08,0.48,0.16,0.96,0.24,1.44c2.24-1.36,4.48-2.72,6.72-4.08c0.08-0.56,0.16-1.12,0.24-1.68c0-0.08,0-0.16,0-0.24
			C280.661,278.332,279.781,278.251,278.901,278.171z"/>
		<g id="XMLID_3_">
			<g>
				<path fill="#FFFFFF" d="M212.661,289.451c0.48,4,0.96,8,1.44,12c-0.32-0.4-0.64-0.8-0.96-1.2c-0.96,0.4-1.92,0.8-2.88,1.2
					c-2.3-2.18-3.88-2.18-4.8-6c-5.82,2.23-8.47-7.69-9.6-14.16c2.5,0.88,7.51,3.66,8.64,6
					C205.251,287.671,210.621,289.102,212.661,289.451z"/>
			</g>
			<g>
			</g>
		</g>
		<path fill-rule="evenodd" clip-rule="evenodd" fill="none" d="M272.421,285.131c-1.6,0.72-3.2,1.44-4.8,2.16c0,0.08,0,0.16,0,0.24
			c1.76-0.8,3.521-1.6,5.28-2.4C272.741,285.131,272.581,285.131,272.421,285.131z"/>
		<g id="XMLID_2_">
			<g>
				<path d="M277.461,256.091c3.44,8.39,9.42,19.07,4.56,30c-2.15,4.83-6.99,8.46-10.56,12c-3.61,1.52-7.65,3.15-11.97,4.67
					l-0.68-1.95c0.26-0.14,0.48-0.32,0.65-0.56c0.88-0.88,1.76-1.76,2.64-2.64c0.88,0.32,1.76,0.64,2.64,0.96
					c1.44-0.8,2.88-1.6,4.32-2.4c0-0.8,0-1.6,0-2.4c1.04,0.08,2.08,0.16,3.12,0.24c1.92-1.98,3.69-2.04,3.6-6.24
					c0.88-0.08,1.76-0.16,2.64-0.24c1.04-2.55,2.17-4.95,3.12-7.92c0-0.4,0-0.8,0-1.2c-0.8-0.08-1.6-0.16-2.4-0.24
					c-0.53,0.38-1.14,0.82-1.75,1.32c1.16-1.54,2-3.36,1.99-5.16c0.72-0.16,1.44-0.32,2.16-0.48c-0.44-3.85-1.91-6.48-2.88-9.6
					c-0.64,0-1.28,0-1.92,0c-0.68,1.25-0.3,5.18,0.24,6.96c-1.76,0.56-3.52,1.12-5.28,1.68c-1.11,1.76-1.2,4.31-2.16,6.48
					c-2.55,2.83-7.23-1-9.6,4.08c-2.94,0.49-5.41-1.27-8.16,1.2c-1.68-0.33-3.65-1-5.93-1l-0.01-0.38
					c5.22-0.16,10.16-1.01,14.34-2.7C266.861,277.872,275.381,263.651,277.461,256.091z"/>
				<path fill="#FFFFFF" d="M281.541,278.412c0,0.4,0,0.8,0,1.2c-0.95,2.97-2.08,5.37-3.12,7.92c-0.88,0.08-1.76,0.16-2.64,0.24
					c0.09,4.2-1.68,4.26-3.6,6.24c-1.04-0.08-2.08-0.16-3.12-0.24c0,0.8,0,1.6,0,2.4c-1.44,0.8-2.88,1.6-4.32,2.4
					c-0.88-0.32-1.76-0.64-2.64-0.96c-0.88,0.88-1.76,1.76-2.64,2.64c-0.17,0.24-0.39,0.42-0.65,0.56c-1.31,0.69-3.6,0.16-4.87-0.56
					c-5.54,2.45-6.34,5.8-13.92,2.88c-1.76,2.81-4.63,2.8-9.36,2.64c-1.2-1.12-2.4-2.24-3.6-3.36c-6.5,1.94-9.81,5.58-13.92-1.92
					c-4.11,0.78-6.99,0.07-7.68-5.04c-2.9,1.67-3.2-0.28-5.52-2.16c-1.67-3.6-3.77-6.75-4.08-12.24c0.08,0,0.16,0,0.24,0
					c0.16,0.16,0.32,0.32,0.48,0.48c0.79,0.31,1.54,0.7,2.26,1.14c2.43,1.46,4.52,3.47,6.62,5.1c0.94-0.56,2.31-0.37,3.7,0.15
					c1.75,0.66,3.52,1.85,4.46,2.73c3.66-0.62,10.26,1.03,13.2,3.36c0.08-0.56,0.16-1.12,0.24-1.68c4.14,1.03,9.93,0.41,13.2,1.92
					c1.2-2.29,6.18-1.4,9.12-1.92c5.71-1,10.71-2.88,17.76-2.64c0.24-0.88,0.48-1.76,0.72-2.64c2.16-0.8,4.32-1.6,6.48-2.4
					c0.02-1.14,0.42-2.14,1.01-3c0.72-0.61,1.43-1.34,2.04-2.16c0.61-0.5,1.22-0.94,1.75-1.32
					C279.941,278.251,280.741,278.332,281.541,278.412z"/>
				<path fill="#FFFFFF" d="M281.541,273.852c-0.72,0.16-1.44,0.32-2.16,0.48c0.01,1.8-0.83,3.62-1.99,5.16
					c-0.74,0.62-1.47,1.33-2.04,2.16c-0.84,0.71-1.69,1.26-2.45,1.56c-0.56-0.08-1.12-0.16-1.68-0.24c-0.41,0.28-0.4,1.77-0.96,2.16
					c-8.37,5.82-31.09,9.18-43.68,5.52c-0.72,0.24-1.44,0.48-2.16,0.72c-4.26-0.4-8.6-1.28-10.8-3.84c-1.4,0.93-2.92,0.83-4.39,0.23
					c-2.4-0.99-4.65-3.33-5.93-4.79c-1.19,0.71-2.89,0.32-4.34-0.51c-1.19-0.69-2.2-1.68-2.62-2.61c-1.05-3.11,0.76-6.88,2.16-9.12
					c2.32-0.12,4.24-0.45,5.76,0.48c0.64,1.6,1.28,3.2,1.92,4.8c7.28,0.56,4.74,1.94,8.4,4.32c2.24,0.16,4.48,0.32,6.72,0.48
					c2,1.28,4,2.56,6,3.84c2.56-0.32,5.12-0.64,7.68-0.96c1.89,0.26,3.38,1.44,4.56,1.68c1.28-0.48,2.56-0.96,3.84-1.44
					c0.86-0.2,1.69-0.28,2.47-0.28c2.28,0,4.25,0.67,5.93,1c2.75-2.47,5.22-0.71,8.16-1.2c2.37-5.08,7.05-1.25,9.6-4.08
					c0.96-2.17,1.05-4.72,2.16-6.48c1.76-0.56,3.52-1.12,5.28-1.68c-0.54-1.78-0.92-5.71-0.24-6.96c0.64,0,1.28,0,1.92,0
					C279.631,267.372,281.101,270.001,281.541,273.852z"/>
				<path fill="#FFFFFF" d="M275.351,281.651c0.57-0.83,1.3-1.54,2.04-2.16C276.781,280.312,276.071,281.042,275.351,281.651z"/>
				<path d="M275.351,281.651c-0.59,0.86-0.99,1.86-1.01,3c-2.16,0.8-4.32,1.6-6.48,2.4c-0.24,0.88-0.48,1.76-0.72,2.64
					c-7.05-0.24-12.05,1.64-17.76,2.64c-2.94,0.52-7.92-0.37-9.12,1.92c-3.27-1.51-9.06-0.89-13.2-1.92
					c-0.08,0.56-0.16,1.12-0.24,1.68c-2.94-2.33-9.54-3.98-13.2-3.36c-0.94-0.88-2.71-2.07-4.46-2.73l0.07-0.16
					c1.47,0.6,2.99,0.7,4.39-0.23c2.2,2.56,6.54,3.44,10.8,3.84c0.72-0.24,1.44-0.48,2.16-0.72c12.59,3.66,35.31,0.3,43.68-5.52
					c0.56-0.39,0.55-1.88,0.96-2.16c0.56,0.08,1.12,0.16,1.68,0.24C273.661,282.912,274.511,282.361,275.351,281.651z"/>
				<path d="M258.811,300.812l0.68,1.95c-16.01,5.6-35.84,9.58-51.39,0.37c-5.46-3.23-12.27-8.92-14.64-15.12
					c-3.58-9.4,4.8-24.82,10.08-27.84c0.08,0.08,0.16,0.16,0.24,0.24c-0.08,0.08-0.16,0.16-0.24,0.24c0.07,1.64-1.89,3.16-0.96,5.52
					c3.9,9.91,25.21,17.65,43.26,17.1l0.01,0.38c-0.78,0-1.61,0.08-2.47,0.28c-1.28,0.48-2.56,0.96-3.84,1.44
					c-1.18-0.24-2.67-1.42-4.56-1.68c-2.56,0.32-5.12,0.64-7.68,0.96c-2-1.28-4-2.56-6-3.84c-2.24-0.16-4.48-0.32-6.72-0.48
					c-3.66-2.38-1.12-3.76-8.4-4.32c-0.64-1.6-1.28-3.2-1.92-4.8c-1.52-0.93-3.44-0.6-5.76-0.48c-1.4,2.24-3.21,6.01-2.16,9.12
					c0.42,0.93,1.43,1.92,2.62,2.61l-0.12,0.21c-0.72-0.44-1.47-0.83-2.26-1.14c-0.16-0.16-0.32-0.32-0.48-0.48
					c-0.08,0-0.16,0-0.24,0c0.31,5.49,2.41,8.64,4.08,12.24c2.32,1.88,2.62,3.83,5.52,2.16c0.69,5.11,3.57,5.82,7.68,5.04
					c4.11,7.5,7.42,3.86,13.92,1.92c1.2,1.12,2.4,2.24,3.6,3.36c4.73,0.16,7.6,0.17,9.36-2.64c7.58,2.92,8.38-0.43,13.92-2.88
					C255.211,300.971,257.501,301.501,258.811,300.812z"/>
				<path d="M209.231,287.761l-0.07,0.16c-1.39-0.52-2.76-0.71-3.7-0.15c-2.1-1.63-4.19-3.64-6.62-5.1l0.12-0.21
					c1.45,0.83,3.15,1.22,4.34,0.51C204.581,284.432,206.831,286.771,209.231,287.761z"/>
			</g>
			<g>
			</g>
		</g>
		<g id="Layer_6">
			<polyline points="237.631,292.176 238.784,291.371 240.301,292.129 			"/>
		</g>
		<g id="Layer_7">
			<polyline points="250.55,291.371 251.488,290.504 253.303,290.938 			"/>
		</g>
		<g id="Layer_8">
			<polyline points="261.023,289.159 261.023,288.492 263.246,288.454 			"/>
		</g>
		<g id="Layer_9">
			<path fill-rule="evenodd" clip-rule="evenodd" d="M273.683,282.828c0,0,5.421-4.267,4.863-5.202
				c-0.073,0.151,0.262,0.785,0.262,0.785s-3.119,3.576-4.188,4.678"/>
		</g>
		<g id="Layer_10">
			<polyline fill-rule="evenodd" clip-rule="evenodd" points="250.224,292.176 251.927,293.358 252.966,291.599 259.744,290.186 			
				"/>
		</g>
		<g id="Layer_11">
			<polyline fill-rule="evenodd" clip-rule="evenodd" points="259.285,290.282 260.384,290.938 262.474,289.834 			"/>
		</g>
	</g>
	<g id="Eyes">
		
			<path id="Left_Eye_2_" fill-rule="evenodd" clip-rule="evenodd" fill="#FFFFFF" stroke="#ED1F24" stroke-width="0.75" stroke-miterlimit="10" d="
			M214.821,231.611c3.614,0.366,5.844,3.461,6.48,6.72c-5.483,2.237-8.816,11.05-3.12,15.6c0.514,0.411,2.003,1.237,2.24,1.333
			c3.157,1.268,6.269,0.108,10-0.613c1.12,0.72,2.24,1.44,3.36,2.16c-1.762,2.109-4.545,3.333-6.96,4.8
			c-5.2,3.159-8.882,4.072-11.476,3.407c-7.805-2.002-5.758-18.301-5.564-30.767C211.46,233.372,213.141,232.491,214.821,231.611z"
			/>
		<path id="Right_Eye_Inner1_2_" fill-rule="evenodd" clip-rule="evenodd" fill="none" d="M262.821,230.892
			c1.84,0.48,3.68,0.96,5.52,1.44c4.42,12.243,9.378,33.078-12,25.2c-2.32-0.96-4.64-1.92-6.96-2.88c1.04-0.8,2.08-1.6,3.12-2.4
			c14.571,2.837,17.462-13.27,5.52-14.88c0-0.08,0-0.16,0-0.24C259.199,233.915,260.137,232.581,262.821,230.892z"/>
		<path id="Right_Eye_Inner_2_" fill="#FFFFFF" stroke="#EE2F24" stroke-width="0.75" stroke-miterlimit="10" d="M262.341,231.131
			c-2.109,1.612-3.693,2.884-4.08,6.24c11.904,1.722,8.743,17.982-6,14.88c-0.96,0.8-1.92,1.6-2.88,2.4c0,0.08,0,0.16,0,0.24
			c4.741,1.113,10.992,6.472,17.76,4.56c9.39-2.652,3.29-20.654,1.2-27.12C266.341,231.932,264.341,231.531,262.341,231.131z"/>
	</g>
</g>
<g id="Academics">
	<g id="Layer_17">
	</g>
	<g>
		<path fill-rule="evenodd" clip-rule="evenodd" fill="#FEE600" stroke="#000000" stroke-width="1.5" stroke-miterlimit="10" d="
			M237.746,63.769c3.28,0,6.56,0,9.84,0c-5.333,8.481-10.917,16.803-16.32,25.44c-2.032,3.249-5.604,6.95-6,11.52
			c0.08,0,0.16,0,0.24,0c9.205-4.726,13.374-14.763,22.56-19.44c4.539-2.311,12.254-2.961,16.08,0.48
			c8.201,7.375-10.806,23.819-21.36,17.28c0,0.16,0,0.32,0,0.48c-0.514,1.155-0.053,2.586,0.24,3.6
			c11.316,8.347,26.999-9.068,31.68-15.36c1.604-2.156,3.464-6.362,6.24-7.2c2.879,0.32,5.76,0.64,8.64,0.96
			c-3.52,4.4-7.04,8.8-10.56,13.2c6.124-4.475,18.708-16.505,29.04-9.36c1.572,5.497-3.784,8.602-6.24,11.76
			c7.449-3.338,18.609-15.025,29.28-7.68c2.306,8.527-9.984,11.31-11.76,18c0.24,0,0.48,0,0.72,0
			c10.49-3.94,19.18-8.964,27.36-15.12c3.04,0.8,6.08,1.6,9.12,2.4c-3.962,4.981-16.042,11.112-17.76,17.04c0.4,0,0.8,0,1.2,0
			c4.48-1.76,8.96-3.521,13.44-5.28c5.631-2.623,12.743-8.921,22.32-6c10.639,3.246,9.068,16.84-1.92,16.8
			c-2.122-1.014-3.364-2.406-4.56-4.32c0-0.08,0-0.16,0-0.24c3.344-0.568,5.185-2.667,7.2-4.56c-0.08-0.56-0.16-1.12-0.24-1.68
			c-8.329-1.302-21.718,6.406-19.68,14.16c11.637,8.717,35.021-3.365,43.92-8.64c3.717-2.203,11.284-1.23,13.2,1.92
			c0,0.48,0,0.96,0,1.44c-1.848,0.954-4.667,1.202-6.72,2.4c-2.72,3.52-5.44,7.04-8.16,10.56c6.698,0.653,14.097-0.502,19.68-2.16
			c2.374-0.705,5.713-2.59,8.16-2.16c0,0.08,0,0.16,0,0.24c-2.027,6.291-16.522,5.998-23.76,7.2c-2.48,0.08-4.96,0.16-7.44,0.24
			c-2.942,1.168-4.886,4.02-8.88,4.8c-6.31,1.233-16.789-2.809-14.4-8.64c-13.536,3.196-27.922-0.825-24.72-14.88
			c-5.107,2.358-18.192,10.692-23.76,5.04c0.069-6.203,6.255-8.557,9.12-12.24c-6.479,3.28-12.96,6.56-19.44,9.84
			c-2.615,0.924-6.997,1.262-8.4-0.96c-2.481-3.504,11.687-15.994,13.44-19.68c-1.873-2.32-7.707,0.818-9.6,1.92
			c-5.528,3.218-10.527,6.91-15.36,10.8c-1.76,1.92-3.521,3.84-5.28,5.76c-2.8-0.32-5.6-0.64-8.4-0.96c0-0.08,0-0.16,0-0.24
			c2.352-2.187,15.259-18.387,15.6-21.12c-0.4-0.24-0.8-0.48-1.2-0.72c-8.875,2.747-24.105,13.209-27.36,21.12
			c-2.96-0.08-5.92-0.16-8.88-0.24c0-0.08,0-0.16,0-0.24c0.16-0.16,0.32-0.32,0.48-0.48c0.959-1.52,1.92-3.04,2.88-4.56
			c-7.478,3.905-28.854,10.68-28.56-5.52c-2.309,1.576-16.007,16.59-19.92,10.32c-0.605-0.735-0.583-2.326-0.24-3.36
			c-4.624,3.532-19.89,12.917-18-3.12c-3.856,3.027-11.842,16.53-18.72,11.04c-0.08-1.04-0.16-2.08-0.24-3.12c0,0.16,0,0.32,0,0.48
			c-3.144,2.517-15.721,13.869-17.76,1.68c-0.16,0.08-0.32,0.16-0.48,0.24c-3.072,6.667-28.354,19.927-30,4.08
			c-0.24,0.16-0.48,0.32-0.72,0.48c-1.401,3.687-9.839,17.591-15.36,15.36c-0.48-0.48-0.96-0.96-1.44-1.44
			c-1.347-2.909,1.787-14.474,2.88-17.52c-2.72,0.96-5.44,1.92-8.16,2.88c-2.305,7.617-9.32,21.711-15.12,25.92
			c-2.92,2.12-9.846,5.227-12.24,0.48c-3.231-6.405,3.135-14.466,5.76-17.28c3.549-3.804,8.082-6.906,12.72-9.6
			c1.92-0.8,3.84-1.6,5.76-2.4c1.439-2.72,2.88-5.44,4.32-8.16c4.319-6.719,8.64-13.44,12.96-20.16c1.2-1.84,2.4-3.68,3.6-5.52
			c3.12-0.88,6.24-1.76,9.36-2.64c-2.72,8.799-5.44,17.601-8.16,26.4c-1.459,4.688-3.513,9.447-3.6,15.36
			c4.907-1.723,8.29-13.119,11.04-17.76c2.219-3.746,5.642-7.593,9.36-9.84c12.009-7.258,18.937,3.237,12,13.2
			c-2.727,0.814-4.967,0.025-7.2-0.72c1.49-2.228,4.376-5.982,2.64-9.12c-6.19,0.731-14.46,15.411-9.6,22.08
			c15.883,4.415,21.853-20,29.28-27.6c6.213-6.358,11.194-9.331,18.48-2.4c0.8-1.92,1.6-3.84,2.4-5.76c3.12-0.4,6.24-0.8,9.36-1.2
			c-1.685,7.978-9.235,13.712-9.84,22.56c9.302-2.481,23.712-36.877,36.96-19.44C229.105,77.849,233.426,70.808,237.746,63.769z"/>
		<path fill-rule="evenodd" clip-rule="evenodd" fill="#FEE600" stroke="#000000" stroke-width="1.5" stroke-miterlimit="10" d="
			M360.625,79.608c4.491-0.232,8.41,0.467,8.64,4.56c-3.017,4.684-11.431,6.613-15.84,1.92
			C353.436,80.952,357.086,81.165,360.625,79.608z"/>
		<path fill-rule="evenodd" clip-rule="evenodd" fill="#FEE600" stroke="#000000" stroke-width="1.5" stroke-miterlimit="10" d="
			M256.226,84.889c-4.691,2.786-8.399,5.059-11.28,9.6c0.24,0.16,0.48,0.32,0.72,0.48c4.311,2.551,14.533-6.192,12.72-10.08
			C257.666,84.889,256.945,84.889,256.226,84.889z"/>
		<path fill-rule="evenodd" clip-rule="evenodd" fill="#FEE600" stroke="#000000" stroke-width="1.5" stroke-miterlimit="10" d="
			M218.786,85.369c-5.617,3.334-15.188,10.37-12.96,19.44c0.24,0.08,0.48,0.16,0.72,0.24c4.922,1.61,15.701-12.964,14.64-18.72
			c-0.16-0.24-0.32-0.48-0.48-0.72C220.065,85.528,219.425,85.448,218.786,85.369z"/>
		<path fill-rule="evenodd" clip-rule="evenodd" fill="#FEE600" stroke="#000000" stroke-width="1.5" stroke-miterlimit="10" d="
			M180.386,89.688c-4.514,2.706-15.535,13.411-11.28,20.88c0.24,0.08,0.48,0.16,0.72,0.24c5.75-1.052,14.265-13.521,12.48-20.64
			C181.666,90.008,181.025,89.849,180.386,89.688z"/>
		<path fill-rule="evenodd" clip-rule="evenodd" fill="#FEE600" stroke="#000000" stroke-width="1.5" stroke-miterlimit="10" d="
			M117.985,94.488c-3.52,6.24-7.04,12.481-10.56,18.72c2.16-0.8,4.32-1.6,6.48-2.4C115.266,105.369,116.625,99.928,117.985,94.488z"
			/>
		<path fill-rule="evenodd" clip-rule="evenodd" fill="#FEE600" stroke="#000000" stroke-width="1.5" stroke-miterlimit="10" d="
			M393.266,119.688c-3.375,2.554-9.33,5.114-13.92,6c0,0.08,0,0.16,0,0.24c3.04,0.4,6.08,0.8,9.12,1.2
			C389.439,125.123,393.628,121.747,393.266,119.688z"/>
		<path fill-rule="evenodd" clip-rule="evenodd" fill="#FEE600" stroke="#000000" stroke-width="1.5" stroke-miterlimit="10" d="
			M98.066,121.128c-5.658,4.227-17.52,9.536-15.84,19.68c4.334,4.066,11.719-11.481,13.2-14.4
			C96.305,124.648,97.186,122.888,98.066,121.128z"/>
		<path fill-rule="evenodd" clip-rule="evenodd" fill="#FEE600" stroke="#000000" stroke-width="1.5" stroke-miterlimit="10" d="
			M378.386,130.249c-0.24,0.24-0.48,0.48-0.72,0.72c0.206,1.086-0.028,0.714,0.72,1.2c2.164,0.913,4.154-0.846,5.76-1.44
			c0-0.08,0-0.16,0-0.24C382.226,130.408,380.305,130.329,378.386,130.249z"/>
	</g>
	<g>
		<g>
			<path d="M79.941,143.61c-2.197,0-3.841-0.958-4.754-2.769c-3.61-7.157,4.232-16.122,5.841-17.846
				c3.106-3.33,7.184-6.409,12.834-9.691l5.653-2.36l4.236-8.001l12.981-20.196l3.704-5.68l10.425-2.941l-8.432,27.278
				c-0.286,0.92-0.595,1.842-0.907,2.775c-1.206,3.599-2.45,7.313-2.646,11.649c2.977-1.695,5.465-7.29,7.492-11.849
				c0.917-2.062,1.783-4.01,2.594-5.377c2.458-4.148,6.021-7.892,9.531-10.013c2.729-1.649,5.316-2.486,7.692-2.486
				c3.041,0,5.537,1.441,6.849,3.953c1.796,3.439,1.079,8.208-1.872,12.446l-0.1,0.144l-0.167,0.05
				c-0.823,0.246-1.634,0.365-2.48,0.365c-1.758,0-3.337-0.527-4.865-1.038l-0.778-0.259l0.738-1.097
				c1.415-2.076,3.523-5.171,2.398-7.738c-2.904,0.599-6.475,4.457-8.624,9.376c-2.058,4.713-2.198,9.074-0.388,11.716
				c1.162,0.309,2.306,0.465,3.403,0.465c8.651,0,13.973-9.542,18.668-17.96c2.219-3.978,4.314-7.735,6.547-10.02
				c3.831-3.92,7.152-6.531,10.911-6.531c2.49,0,5.028,1.188,7.74,3.627l2.235-5.366l10.345-1.326l-0.146,0.689
				c-0.776,3.674-2.787,6.916-4.732,10.051c-2.22,3.578-4.511,7.272-5.027,11.676c2.865-1.241,6.335-5.416,9.991-9.816
				c5.573-6.706,11.889-14.307,18.33-14.307c2.867,0,5.561,1.526,8.018,4.54l12.731-20.747h11.025l-0.482,0.766
				c-2.556,4.065-5.217,8.167-7.791,12.134c-2.81,4.33-5.715,8.808-8.528,13.305c-0.501,0.801-1.083,1.615-1.7,2.476
				c-1.696,2.367-3.599,5.024-4.121,8.02c4.221-2.331,7.431-5.871,10.54-9.3c3.318-3.659,6.749-7.442,11.43-9.826
				c2.425-1.234,5.665-1.972,8.666-1.972c2.357,0,5.655,0.438,7.976,2.526c2.181,1.961,2.732,4.733,1.554,7.807
				c-2.145,5.593-10.159,11.849-17.674,11.849c-1.899,0-3.633-0.403-5.167-1.199c-0.332,0.912,0.01,2.094,0.265,2.97
				c1.876,1.344,3.987,2.025,6.275,2.025c9.188,0,19.768-10.924,24.571-17.379c0.394-0.53,0.812-1.201,1.256-1.911
				c1.4-2.245,2.987-4.789,5.241-5.469l0.098-0.03l9.644,1.072l-8.536,10.67c4.923-3.839,12.032-9.149,19.002-9.149
				c2.659,0,5.129,0.775,7.341,2.305l0.147,0.102l0.049,0.172c1.275,4.458-1.649,7.375-4.229,9.948
				c-0.046,0.046-0.093,0.092-0.139,0.138c1.074-0.633,2.204-1.359,3.37-2.107c4.852-3.114,10.352-6.643,16.12-6.643
				c2.743,0,5.341,0.831,7.722,2.469l0.151,0.104l0.048,0.177c1.435,5.305-2.389,8.467-6.088,11.526
				c-2.342,1.937-4.565,3.775-5.458,6.079c9.79-3.693,18.4-8.46,27.083-14.994l0.194-0.146l10.095,2.657l-0.477,0.6
				c-1.605,2.018-4.446,4.171-7.453,6.451c-4.254,3.224-8.643,6.551-9.991,9.778h0.398l13.353-5.246
				c1.136-0.53,2.377-1.24,3.691-1.99c3.938-2.25,8.402-4.801,13.835-4.801c1.706,0,3.429,0.262,5.122,0.779
				c5.961,1.818,8.043,6.56,7.463,10.451c-0.544,3.647-3.687,7.327-9.481,7.327h-0.113l-0.15-0.049
				c-2.446-1.169-3.738-2.857-4.768-4.506l-0.076-0.122v-0.806l0.416-0.07c2.82-0.479,4.494-2.087,6.267-3.789
				c0.162-0.155,0.323-0.31,0.485-0.464l-0.15-1.051c-0.482-0.059-0.988-0.088-1.51-0.088c-5.528,0-12.373,3.26-15.582,7.421
				c-1.1,1.427-2.274,3.629-1.705,6.089c2.613,1.9,6.027,2.864,10.152,2.864c12.126,0,27.167-8.14,33.071-11.64
				c1.373-0.813,3.309-1.261,5.452-1.261c3.182,0,7.022,1.036,8.431,3.352l0.073,0.12v1.885l-0.271,0.14
				c-0.889,0.458-1.946,0.75-3.066,1.059c-1.231,0.34-2.503,0.691-3.548,1.281l-7.538,9.755c0.971,0.07,1.979,0.106,3.006,0.106
				c6.738,0,12.65-1.457,15.574-2.325c0.667-0.198,1.42-0.495,2.218-0.81c1.704-0.672,3.636-1.434,5.321-1.434
				c0.297,0,0.583,0.023,0.85,0.07l0.414,0.073v0.739l-0.024,0.075c-1.681,5.215-11.035,6.139-18.552,6.88
				c-2.068,0.204-4.022,0.397-5.602,0.659l-7.417,0.244c-1.096,0.45-2.062,1.153-3.085,1.896c-1.629,1.185-3.313,2.41-5.805,2.897
				c-0.785,0.154-1.646,0.231-2.556,0.231c-4.159,0-9.75-1.743-11.917-4.973c-0.782-1.166-1.038-2.434-0.758-3.711
				c-2.652,0.568-5.284,0.855-7.836,0.855c-6.674,0-11.908-1.954-14.739-5.502c-2.104-2.637-2.808-6.005-2.099-10.023
				c-0.585,0.291-1.243,0.631-1.964,1.005c-4.291,2.221-10.774,5.577-15.892,5.577c-2.337,0-4.211-0.699-5.57-2.078l-0.146-0.148
				l0.002-0.208c0.05-4.485,3.163-7.085,5.909-9.38c0.417-0.348,0.826-0.69,1.218-1.032l-16.721,8.464
				c-1.391,0.496-2.968,0.765-4.387,0.765c-2.263,0-3.875-0.659-4.662-1.904c-1.842-2.601,3.623-8.689,8.445-14.062
				c2.083-2.321,4.059-4.522,4.804-5.796c-0.351-0.285-0.844-0.423-1.495-0.423c-2.369,0-5.852,1.879-7.24,2.687
				c-4.832,2.812-9.549,6.13-15.298,10.757l-5.397,5.896l-9.096-1.04v-0.904l0.16-0.148c2.556-2.376,14.281-17.301,15.369-20.514
				l-0.693-0.416c-8.406,2.695-23.617,12.95-26.833,20.766l-0.131,0.319l-9.711-0.262v-0.934l0.587-0.587l1.909-3.023
				c-4.526,2.079-11.073,4.063-16.4,4.063c-3.853,0-6.776-0.987-8.69-2.936c-1.602-1.631-2.472-3.924-2.594-6.828
				c-0.435,0.384-0.986,0.894-1.613,1.473c-3.976,3.675-10.63,9.827-15.055,9.827c-1.387,0-2.46-0.591-3.188-1.758
				c-0.47-0.567-0.618-1.538-0.545-2.474c-2.36,1.662-8.031,5.301-12.444,5.302c-1.667,0-2.981-0.528-3.907-1.57
				c-1.223-1.375-1.738-3.649-1.535-6.77c-0.729,0.73-1.57,1.696-2.498,2.762c-3.431,3.94-7.701,8.843-12.116,8.844
				c-1.353,0-2.631-0.474-3.802-1.408l-0.17-0.135l-0.148-1.931c-0.015,0.012-0.03,0.024-0.045,0.037
				c-2.649,2.181-8.162,6.72-12.438,6.72c-2.676,0-4.423-1.698-5.2-5.05c-2.671,4.486-13.61,11.303-21.892,11.303
				c-4.889,0-7.862-2.42-8.648-7.016c-1.543,3.674-8.738,15.621-14.445,15.623c-0.506,0-0.993-0.093-1.449-0.277l-0.094-0.038
				l-1.575-1.575l-0.037-0.081c-1.346-2.908,1.296-13.016,2.535-16.918l-6.958,2.456c-2.454,7.919-9.514,21.789-15.231,25.937
				C86.596,141.68,83.096,143.61,79.941,143.61z"/>
			<path fill="#FFFFFF" d="M246.033,59.496c-5.333,8.481-10.917,16.803-16.32,25.44c-2.032,3.249-5.604,6.95-6,11.52
				c0.08,0,0.16,0,0.24,0c9.205-4.726,13.374-14.763,22.56-19.44c2.303-1.172,5.424-1.917,8.438-1.917
				c2.928,0,5.756,0.702,7.642,2.397c6.888,6.194-5.416,18.785-15.786,18.785c-1.977,0-3.884-0.458-5.574-1.505
				c0,0.16,0,0.32,0,0.48c-0.514,1.155-0.053,2.586,0.24,3.6c2.116,1.561,4.387,2.221,6.708,2.221
				c10.091,0,21.166-12.466,24.972-17.581c1.604-2.156,3.464-6.362,6.24-7.2c2.879,0.32,5.76,0.64,8.64,0.96
				c-3.52,4.4-7.04,8.8-10.56,13.2c4.776-3.49,13.482-11.576,21.984-11.576c2.399,0,4.782,0.644,7.056,2.216
				c1.572,5.497-3.784,8.602-6.24,11.76c5.724-2.565,13.641-10.061,21.842-10.061c2.471,0,4.967,0.68,7.438,2.381
				c2.306,8.527-9.984,11.31-11.76,18c0.24,0,0.48,0,0.72,0c10.49-3.94,19.18-8.964,27.36-15.12c3.04,0.8,6.08,1.6,9.12,2.4
				c-3.962,4.981-16.042,11.112-17.76,17.04c0.4,0,0.8,0,1.2,0c4.48-1.76,8.96-3.521,13.44-5.28
				c4.609-2.147,10.211-6.757,17.344-6.757c1.582,0,3.238,0.227,4.976,0.757c10.623,3.241,9.073,16.8-1.872,16.8
				c-0.016,0-0.032,0-0.048,0c-2.122-1.014-3.364-2.406-4.56-4.32c0-0.08,0-0.16,0-0.24c3.344-0.568,5.185-2.667,7.2-4.56
				c-0.08-0.56-0.16-1.12-0.24-1.68c-0.625-0.098-1.279-0.145-1.952-0.145c-8.3,0-19.613,7.132-17.729,14.305
				c2.927,2.192,6.598,3.069,10.594,3.069c11.891,0,26.666-7.761,33.326-11.709c1.368-0.811,3.259-1.191,5.197-1.191
				c3.326,0,6.793,1.121,8.003,3.111c0,0.48,0,0.96,0,1.44c-1.848,0.954-4.667,1.202-6.72,2.4c-2.72,3.52-5.44,7.04-8.16,10.56
				c1.3,0.127,2.628,0.186,3.963,0.186c5.541,0,11.218-1.01,15.717-2.346c2.135-0.634,5.051-2.223,7.397-2.223
				c0.262,0,0.517,0.02,0.763,0.063c0,0.08,0,0.16,0,0.24c-2.027,6.291-16.522,5.998-23.76,7.2c-2.48,0.08-4.96,0.16-7.44,0.24
				c-2.942,1.168-4.886,4.02-8.88,4.8c-0.769,0.15-1.599,0.222-2.46,0.222c-6.211,0-14.037-3.741-11.939-8.862
				c-2.877,0.68-5.794,1.033-8.571,1.033c-10.287,0-18.67-4.846-16.148-15.913c-3.856,1.781-12.263,6.969-18.546,6.969
				c-2.037,0-3.851-0.545-5.214-1.929c0.069-6.203,6.255-8.557,9.12-12.24c-6.479,3.28-12.96,6.56-19.44,9.84
				c-1.174,0.415-2.704,0.711-4.161,0.711c-1.789,0-3.466-0.447-4.239-1.671c-2.481-3.504,11.687-15.994,13.44-19.68
				c-0.484-0.6-1.232-0.834-2.109-0.834c-2.516,0-6.087,1.937-7.491,2.755c-5.528,3.218-10.527,6.91-15.36,10.8
				c-1.76,1.92-3.521,3.84-5.28,5.76c-2.8-0.32-5.6-0.64-8.4-0.96c0-0.08,0-0.16,0-0.24c2.352-2.187,15.259-18.387,15.6-21.12
				c-0.4-0.24-0.8-0.48-1.2-0.72c-8.875,2.747-24.105,13.209-27.36,21.12c-2.96-0.08-5.92-0.16-8.88-0.24c0-0.08,0-0.16,0-0.24
				c0.16-0.16,0.32-0.32,0.48-0.48c0.959-1.52,1.92-3.04,2.88-4.56c-3.853,2.012-11.397,4.787-17.765,4.787
				c-5.99,0-10.938-2.454-10.795-10.307c-1.914,1.306-11.651,11.843-17.156,11.843c-1.137,0-2.094-0.45-2.764-1.523
				c-0.605-0.735-0.583-2.326-0.24-3.36c-2.644,2.02-8.768,5.953-13.174,5.953c-3.3,0-5.636-2.205-4.826-9.073
				c-3.216,2.525-9.306,12.339-15.229,12.339c-1.178,0-2.349-0.388-3.49-1.299c-0.08-1.04-0.16-2.08-0.24-3.12c0,0.16,0,0.32,0,0.48
				c-2.084,1.668-8.316,7.221-12.873,7.221c-2.316,0-4.2-1.434-4.887-5.542c-0.16,0.08-0.32,0.16-0.48,0.24
				c-2.011,4.364-13.54,11.554-21.725,11.554c-4.319,0-7.707-2-8.275-7.474c-0.24,0.16-0.48,0.32-0.72,0.48
				c-1.298,3.416-8.636,15.601-14.098,15.601c-0.434,0-0.855-0.077-1.262-0.241c-0.48-0.48-0.96-0.96-1.44-1.44
				c-1.347-2.909,1.787-14.474,2.88-17.52c-2.72,0.96-5.44,1.92-8.16,2.88c-2.305,7.617-9.32,21.711-15.12,25.92
				c-1.793,1.301-5.095,2.975-7.932,2.975c-1.784,0-3.384-0.662-4.308-2.494c-3.231-6.405,3.135-14.466,5.76-17.28
				c3.549-3.804,8.082-6.906,12.72-9.6c1.92-0.8,3.84-1.6,5.76-2.4c1.439-2.72,2.88-5.44,4.32-8.16
				c4.319-6.719,8.64-13.44,12.96-20.16c1.2-1.84,2.4-3.68,3.6-5.52c3.12-0.88,6.24-1.76,9.36-2.64
				c-2.72,8.799-5.44,17.601-8.16,26.4c-1.459,4.688-3.513,9.447-3.6,15.36c4.907-1.723,8.29-13.119,11.04-17.76
				c2.219-3.746,5.642-7.593,9.36-9.84c2.788-1.685,5.303-2.414,7.433-2.414c7.047,0,9.894,7.963,4.567,15.613
				c-0.818,0.244-1.593,0.344-2.337,0.344c-1.734,0-3.3-0.543-4.863-1.064c1.49-2.228,4.376-5.982,2.64-9.12
				c-6.19,0.731-14.46,15.411-9.6,22.08c1.3,0.361,2.535,0.53,3.708,0.53c13.163,0,18.752-21.152,25.572-28.13
				c3.706-3.792,6.974-6.381,10.554-6.381c2.422,0,4.986,1.184,7.926,3.981c0.8-1.92,1.6-3.84,2.4-5.76c3.12-0.4,6.24-0.8,9.36-1.2
				c-1.685,7.978-9.235,13.712-9.84,22.56c7.434-1.983,18.132-24.353,28.891-24.353c2.703,0,5.409,1.411,8.069,4.913
				c4.319-7.04,8.64-14.081,12.96-21.12C239.473,59.496,242.753,59.496,246.033,59.496 M247.843,58.496h-1.81h-9.84h-0.56
				l-0.293,0.477l-12.223,19.919c-2.436-2.781-5.106-4.188-7.954-4.188c-6.676,0-13.072,7.696-18.714,14.487
				c-3.265,3.929-6.378,7.675-8.969,9.243c0.7-3.888,2.788-7.252,4.814-10.519c1.968-3.172,4.002-6.452,4.796-10.211l0.291-1.377
				l-1.396,0.179l-4.68,0.6l-4.68,0.6l-0.574,0.073l-0.222,0.534l-1.245,2.987l-0.613,1.471c-2.613-2.214-5.092-3.294-7.546-3.294
				c-3.934,0-7.35,2.671-11.269,6.682c-2.279,2.332-4.39,6.117-6.625,10.125c-4.628,8.298-9.874,17.704-18.231,17.704
				c-0.997,0-2.035-0.135-3.092-0.401c-1.604-2.515-1.413-6.619,0.535-11.081c1.952-4.47,5.203-8.139,7.85-8.977
				c0.643,2.25-1.222,4.988-2.496,6.857c-0.132,0.194-0.258,0.379-0.376,0.555l-0.729,1.09l1.244,0.415l0.155,0.052
				c1.566,0.523,3.185,1.063,5.024,1.063c0.895,0,1.753-0.126,2.624-0.386l0.335-0.1l0.2-0.287
				c3.057-4.391,3.787-9.358,1.905-12.963c-1.401-2.683-4.059-4.222-7.292-4.222c-2.468,0-5.143,0.861-7.95,2.558
				c-3.578,2.162-7.205,5.97-9.703,10.186c-0.825,1.393-1.697,3.354-2.621,5.429c-1.806,4.061-3.984,8.959-6.469,11.046
				c0.326-3.836,1.456-7.209,2.554-10.485c0.313-0.936,0.624-1.861,0.91-2.784l2.532-8.191l5.629-18.21l0.543-1.757l-1.77,0.499
				l-5.191,1.464l-4.168,1.176l-0.361,0.102l-0.205,0.314l-3.6,5.52l-12.964,20.166l-0.023,0.035l-0.02,0.038l-0.324,0.611
				l-3.828,7.231l-2.549,1.062l-2.88,1.2l-0.061,0.025l-0.057,0.033c-5.694,3.308-9.808,6.417-12.949,9.783
				c-2.315,2.482-9.587,11.147-5.922,18.413c1.005,1.991,2.803,3.044,5.201,3.044c3.282,0,6.899-1.99,8.519-3.165
				c5.829-4.23,12.751-17.761,15.339-25.954l3.606-1.273l2.19-0.773c-1.245,4.198-3.6,13.372-2.231,16.33l0.075,0.162l0.126,0.125
				l0.72,0.72l0.72,0.72l0.144,0.144l0.188,0.076c0.515,0.208,1.065,0.313,1.636,0.313c5.585,0,11.992-10.128,14.285-14.626
				c1.181,3.903,4.238,6.02,8.809,6.02c7.433,0,18.021-5.812,21.702-10.631c1.18,3.563,3.508,4.378,5.39,4.378
				c4.1,0,9.175-3.909,12.058-6.261l0.058,0.757l0.033,0.434l0.34,0.271c1.261,1.006,2.646,1.517,4.114,1.517
				c4.643,0,8.995-4.999,12.493-9.015c0.559-0.642,1.086-1.248,1.573-1.784c-0.002,2.599,0.563,4.507,1.708,5.795
				c1.025,1.153,2.465,1.738,4.281,1.738c4.113,0,9.235-3.028,11.954-4.858c0.06,0.674,0.25,1.336,0.644,1.845
				c0.814,1.271,2.051,1.943,3.58,1.943c4.621,0,11.365-6.235,15.395-9.96c0.298-0.276,0.584-0.541,0.851-0.784
				c0.275,2.547,1.166,4.601,2.66,6.122c2.011,2.047,5.055,3.085,9.047,3.085c4.835,0,10.656-1.608,15.109-3.455l-1.011,1.6
				l-0.401,0.401l-0.293,0.293v0.414v0.24v0.973l0.973,0.026l4.497,0.122l4.383,0.118l0.689,0.019l0.262-0.638
				c2.935-7.132,17.142-17.396,26.308-20.41l0.141,0.084c-1.605,3.551-12.455,17.48-15.094,19.934l-0.319,0.297v0.436v0.24v0.892
				l0.886,0.102l7.555,0.863l0.845,0.097l0.506,0.058l0.345-0.375l2.513-2.741l2.716-2.963c5.702-4.586,10.384-7.877,15.177-10.667
				c1.353-0.788,4.741-2.619,6.989-2.619c0.34,0,0.595,0.044,0.787,0.106c-0.863,1.263-2.624,3.224-4.468,5.28
				c-6.163,6.867-10.381,11.943-8.481,14.685c0.887,1.384,2.64,2.116,5.071,2.116c1.473,0,3.111-0.28,4.494-0.769l0.061-0.021
				l0.058-0.029l10.171-5.148l2.851-1.442c-2.183,2.008-4.113,4.438-4.154,8.087l-0.004,0.417l0.292,0.296
				c1.456,1.479,3.45,2.228,5.927,2.228c5.24,0,11.788-3.389,16.121-5.632c0.384-0.199,0.75-0.388,1.097-0.566
				c-0.464,3.742,0.322,6.914,2.347,9.452c2.928,3.669,8.301,5.69,15.13,5.69c2.36,0,4.789-0.242,7.237-0.722
				c-0.086,1.158,0.229,2.296,0.941,3.356c2.264,3.374,8.044,5.194,12.333,5.194c0.942,0,1.835-0.081,2.652-0.241
				c2.6-0.508,4.408-1.823,6.003-2.983c0.971-0.706,1.89-1.375,2.898-1.804l3.979-0.128l3.28-0.106l0.066-0.002l0.065-0.011
				c1.563-0.259,3.51-0.452,5.57-0.655c7.662-0.756,17.197-1.697,18.978-7.225l0.048-0.149v-0.157v-0.24v-0.839l-0.827-0.146
				c-0.295-0.052-0.61-0.078-0.937-0.078c-1.781,0-3.759,0.78-5.505,1.469c-0.788,0.311-1.531,0.604-2.177,0.796
				c-2.898,0.86-8.757,2.304-15.432,2.304c-0.688,0-1.368-0.016-2.033-0.048l4.987-6.454l1.91-2.472
				c0.977-0.531,2.182-0.864,3.349-1.186c1.145-0.316,2.227-0.615,3.162-1.097l0.542-0.279v-0.609v-1.44v-0.28l-0.146-0.239
				c-1.509-2.481-5.536-3.592-8.858-3.592c-2.231,0-4.258,0.473-5.707,1.331c-5.869,3.479-20.814,11.57-32.816,11.57
				c-3.935,0-7.197-0.894-9.703-2.658c-0.427-2.199,0.646-4.186,1.653-5.49c3.125-4.052,9.795-7.226,15.185-7.226
				c0.367,0,0.725,0.015,1.07,0.045l0.059,0.41c-0.1,0.096-0.2,0.191-0.3,0.288c-1.716,1.647-3.336,3.203-6.004,3.657l-0.833,0.142
				v0.844v0.24v0.287l0.152,0.243c1.071,1.714,2.415,3.468,4.977,4.693l0.203,0.097l0.225,0h0.001h0.049
				c4.39,0,9.177-2.397,9.976-7.753c0.845-5.665-3.457-9.675-7.812-11.004c-1.741-0.531-3.513-0.8-5.268-0.8
				c-5.566,0-10.289,2.699-14.083,4.867c-1.294,0.739-2.517,1.438-3.655,1.97l-6.691,2.629l-5.897,2.317
				c1.723-2.85,5.737-5.892,9.343-8.625c3.033-2.299,5.898-4.47,7.543-6.538l0.954-1.2l-1.482-0.39l-4.56-1.2l-4.56-1.2
				l-0.468-0.123l-0.387,0.292c-8.288,6.236-16.506,10.854-25.758,14.464c1.051-1.704,2.862-3.202,4.752-4.765
				c3.642-3.013,7.771-6.427,6.252-12.042l-0.096-0.354l-0.303-0.208c-2.465-1.697-5.158-2.557-8.005-2.557
				c-5.915,0-11.48,3.571-16.39,6.722c-0.051,0.033-0.102,0.065-0.152,0.098c1.649-2.066,2.826-4.562,1.901-7.794l-0.098-0.344
				l-0.294-0.203c-2.297-1.588-4.862-2.394-7.625-2.394c-5.719,0-11.474,3.45-16.096,6.817l5.453-6.817l1.134-1.418l-1.805-0.201
				l-2.047-0.227l-6.593-0.732l-0.203-0.023l-0.196,0.059c-2.434,0.735-4.145,3.479-5.521,5.684
				c-0.438,0.702-0.851,1.364-1.233,1.877c-4.748,6.38-15.18,17.178-24.17,17.178c-2.125,0-4.089-0.616-5.844-1.833
				c-0.171-0.596-0.361-1.313-0.331-1.933c1.453,0.644,3.062,0.969,4.801,0.969c7.711,0,15.938-6.425,18.141-12.17
				c1.258-3.281,0.659-6.249-1.687-8.358c-2.439-2.193-5.865-2.654-8.31-2.654c-3.076,0-6.4,0.757-8.892,2.026
				c-4.763,2.425-8.225,6.243-11.573,9.936c-2.959,3.263-5.774,6.368-9.417,8.618c0.723-2.45,2.326-4.688,3.774-6.71
				c0.622-0.868,1.208-1.687,1.718-2.501c2.811-4.494,5.715-8.97,8.524-13.298c2.575-3.968,5.237-8.072,7.795-12.14L247.843,58.496
				L247.843,58.496z"/>
		</g>
		<g>
			<path d="M358.51,85.016c-2.783,0-5.27-1.015-7.001-2.858l-0.136-0.145l0-0.199c0.009-4.387,2.564-5.229,5.27-6.121
				c0.73-0.241,1.485-0.489,2.229-0.816l0.084-0.037l0.091-0.005c0.498-0.025,0.989-0.04,1.469-0.04c1.833,0,7.412,0,7.696,5.072
				l0.009,0.162l-0.088,0.137C366.265,83.067,362.397,85.016,358.51,85.016z"/>
			<path fill="#FFFFFF" d="M360.516,75.296c3.858,0,6.992,0.952,7.197,4.6c-1.806,2.803-5.546,4.621-9.203,4.621
				c-2.452,0-4.867-0.816-6.637-2.701c0.01-5.137,3.66-4.923,7.2-6.48C359.562,75.31,360.045,75.296,360.516,75.296 M360.517,74.296
				c-0.468,0-0.971,0.014-1.495,0.041l-0.183,0.009l-0.167,0.074c-0.721,0.317-1.465,0.562-2.184,0.799
				c-2.755,0.907-5.604,1.846-5.614,6.594l-0.001,0.397l0.272,0.29c1.827,1.945,4.443,3.016,7.366,3.016
				c4.051,0,8.087-2.041,10.044-5.079l0.176-0.273l-0.018-0.325C368.505,76.161,365.748,74.296,360.517,74.296L360.517,74.296z"/>
		</g>
		<g>
			<path fill="#FEE600" d="M245.954,91.654c-0.797,0-1.502-0.178-2.095-0.528l-1.149-0.766l0.261-0.413
				c3.018-4.756,6.924-7.075,11.447-9.761l0.118-0.07h2.616l0.135,0.289c0.538,1.153,0.242,2.672-0.856,4.396
				C254.365,88.042,249.555,91.654,245.954,91.654C245.954,91.654,245.954,91.654,245.954,91.654z"/>
			<path fill="#FFFFFF" d="M256.833,80.616c1.588,3.406-6.061,10.538-10.88,10.538c-0.681,0-1.306-0.143-1.84-0.458
				c-0.24-0.16-0.48-0.32-0.72-0.48c2.881-4.541,6.589-6.814,11.28-9.6C255.393,80.616,256.113,80.616,256.833,80.616
				 M257.471,79.616h-0.637h-2.16h-0.274l-0.236,0.14c-4.388,2.606-8.532,5.067-11.613,9.924l-0.523,0.825l0.812,0.542l0.721,0.481
				l0.022,0.015l0.023,0.014c0.671,0.396,1.461,0.598,2.35,0.598c3.819,0,8.719-3.664,10.899-7.086
				c1.194-1.874,1.5-3.56,0.887-4.875L257.471,79.616L257.471,79.616z"/>
		</g>
		<g>
			<path fill="#FEE600" d="M205.803,100.399c-0.234,0-0.455-0.033-0.655-0.099l-0.452-0.15c-1.846-8.408,7.032-15.179,12.645-18.537
				l1.522,0.19l0.294,0.441c0.421,2.738-2.093,8.19-5.9,12.761C210.446,98.382,207.659,100.399,205.803,100.399
				C205.803,100.399,205.803,100.399,205.803,100.399z"/>
			<path fill="#FFFFFF" d="M217.451,82.131l1.124,0.14l0.104,0.156c0.326,2.638-2.126,7.84-5.801,12.254
				c-2.68,3.219-5.39,5.218-7.075,5.218c-0.181,0-0.349-0.025-0.493-0.072l-0.181-0.06C203.618,91.86,212.013,85.409,217.451,82.131
				 M217.233,81.096c-5.617,3.334-15.188,10.37-12.96,19.44c0.24,0.08,0.48,0.16,0.72,0.24c0.255,0.083,0.526,0.124,0.81,0.124
				c5.198,0,14.837-13.386,13.831-18.843c-0.16-0.24-0.32-0.48-0.48-0.72C218.513,81.255,217.873,81.175,217.233,81.096
				L217.233,81.096z"/>
		</g>
		<g>
			<path fill="#FEE600" d="M167.896,105.883c-3.683-6.904,6.333-17.021,11.019-19.932l1.418,0.355
				c0.631,3.109-0.702,7.701-3.528,12.089c-2.648,4.113-5.968,7.086-8.5,7.624L167.896,105.883z"/>
			<path fill="#FFFFFF" d="M179.001,86.488l0.666,0.167l0.231,0.058c0.463,2.976-0.848,7.272-3.513,11.412
				c-2.495,3.875-5.694,6.794-8.055,7.376l-0.083-0.028C165.019,98.945,174.401,89.437,179.001,86.488 M178.833,85.416
				c-4.514,2.706-15.535,13.411-11.28,20.88c0.24,0.08,0.48,0.16,0.72,0.24c5.75-1.052,14.265-13.521,12.48-20.64
				C180.113,85.735,179.473,85.576,178.833,85.416L178.833,85.416z"/>
		</g>
		<g>
			<polygon fill="#FEE600" points="115.051,93.684 111.933,106.158 106.979,107.993 			"/>
			<path fill="#FFFFFF" d="M113.668,97.152l-0.266,1.064l-1.891,7.565l-3.426,1.269L113.668,97.152 M116.433,90.215
				c-3.52,6.24-7.04,12.481-10.56,18.72c2.16-0.8,4.32-1.6,6.48-2.4C113.713,101.096,115.073,95.655,116.433,90.215L116.433,90.215z
				"/>
		</g>
		<g>
			<path fill="#FEE600" d="M379.921,121.431c3.818-1.035,8.136-2.939,11.1-4.913c-0.452,1.012-1.536,2.267-2.456,3.332
				c-0.765,0.886-1.493,1.729-1.927,2.465L379.921,121.431z"/>
			<path fill="#FFFFFF" d="M389.371,118.114c-0.398,0.499-0.823,0.991-1.185,1.41c-0.686,0.794-1.342,1.554-1.802,2.254l-0.913-0.12
				l-3.184-0.419C384.742,120.412,387.236,119.313,389.371,118.114 M391.713,115.416c-3.375,2.554-9.33,5.114-13.92,6
				c0,0.08,0,0.16,0,0.24c3.04,0.4,6.08,0.8,9.12,1.2C387.887,120.85,392.076,117.474,391.713,115.416L391.713,115.416z"/>
		</g>
		<g>
			<path fill="#FEE600" d="M82.268,137.709c-0.713,0-1.364-0.272-1.937-0.809l-0.124-0.116l-0.027-0.167
				c-1.434-8.656,6.649-13.937,12.551-17.793c1.279-0.835,2.486-1.625,3.483-2.369l1.69-1.263l-3.892,7.779
				C90.853,129.297,86.197,137.709,82.268,137.709C82.268,137.709,82.268,137.709,82.268,137.709z"/>
			<path fill="#FFFFFF" d="M96.514,116.855c-0.88,1.76-1.761,3.52-2.641,5.28c-1.312,2.585-7.252,15.074-11.605,15.074
				c-0.562,0-1.099-0.208-1.594-0.674C78.994,126.391,90.855,121.083,96.514,116.855 M99.296,113.528l-3.381,2.526
				c-0.984,0.735-2.186,1.521-3.458,2.352c-6.017,3.931-14.257,9.315-12.771,18.293l0.055,0.334l0.247,0.232
				c0.668,0.626,1.435,0.944,2.278,0.944c4.16,0,8.701-8.025,12.193-15.016l0.304-0.605l2.644-5.285L99.296,113.528L99.296,113.528z
				"/>
		</g>
		<g>
			<path d="M378.106,127.653c-0.377,0-0.729-0.071-1.078-0.218c-0.081-0.062-0.198-0.129-0.286-0.179
				c-0.013-0.007-0.024-0.014-0.035-0.02c-0.004-0.028-0.038-0.263-0.056-0.372l0.38-0.38l3.992,0.166
				C380.082,127.146,379.107,127.653,378.106,127.653L378.106,127.653z"/>
			<path fill="#FFFFFF" d="M377.281,126.995l1.54,0.064c-0.241,0.06-0.479,0.094-0.715,0.094c-0.283,0-0.549-0.049-0.812-0.15
				C377.29,127,377.286,126.998,377.281,126.995 M376.833,125.976c-0.24,0.24-0.48,0.48-0.72,0.72c0.206,1.086-0.028,0.714,0.72,1.2
				c0.432,0.182,0.856,0.258,1.272,0.258c1.67,0,3.202-1.222,4.487-1.698c0-0.08,0-0.16,0-0.24
				C380.673,126.135,378.753,126.056,376.833,125.976L376.833,125.976z"/>
		</g>
	</g>
	<g id="Layer_20">
	</g>
	<g id="Layer_19">
		<path d="M171.43,103.578c0,0,1.875-8.625,8.188-13.188C179.68,90.515,178.18,98.515,171.43,103.578z"/>
	</g>
	<g id="Layer_18">
		<path fill="#231F20" d="M208.993,98.203c0,0,3.188-9.512,9-12.787C218.055,85.39,216.743,92.14,208.993,98.203z"/>
	</g>
</g>
</svg>
