<?xml version="1.0" encoding="utf-8"?>
<!-- Generator: Adobe Illustrator 16.0.0, SVG Export Plug-In . SVG Version: 6.00 Build 0)  -->
<!DOCTYPE svg PUBLIC "-//W3C//DTD SVG 1.1//EN" "http://www.w3.org/Graphics/SVG/1.1/DTD/svg11.dtd">
<svg version="1.1" id="Layer_1" xmlns="http://www.w3.org/2000/svg" xmlns:xlink="http://www.w3.org/1999/xlink" x="0px" y="0px"
	 width="504px" height="360px" viewBox="0 0 504 360" enable-background="new 0 0 504 360" xml:space="preserve">
<path id="Outter_Most" fill-rule="evenodd" clip-rule="evenodd" fill="#FEE600" d="M164.657,66.217
	c56.143-0.349,114.02-4.583,148.464,16.942c38.353,23.966,73.854,82.016,49.488,144.005c-10.615,27.007-25.577,39.023-45.029,56.621
	c6.984,6.539,13.969,13.079,20.954,19.617c0,0.149,0,0.297,0,0.446c-21.992,0-43.991,0-65.984,0
	c-16.494,0.002-33.32,0.711-46.813-2.675c-22.802-5.723-39.184-15.95-54.837-28.533c-7.898-6.35-14.123-15.747-19.617-24.522
	c-36.401-58.129-13.431-131.923,34.33-161.838C180.233,79.7,167.696,74.348,164.657,66.217z"/>
<path id="Outter_Black" fill-rule="evenodd" clip-rule="evenodd" d="M194.975,78.254c3.565,3.418,7.133,6.837,10.7,10.254
	c-49.457,17.093-80,95.739-45.921,151.585c16.707,27.379,42.083,44.669,79.805,51.271c22.883,0.148,45.775,0.297,68.659,0.445
	c-0.446-0.594-0.892-1.188-1.338-1.783c-3.12-2.675-6.243-5.35-9.363-8.025c0.149-0.297,0.297-0.594,0.446-0.891
	c50.861-17.587,78.572-97.852,44.138-152.923c-15.753-25.193-40.525-42.39-74.9-49.042
	C245.838,75.012,218.039,78.189,194.975,78.254z"/>
<path fill-rule="evenodd" clip-rule="evenodd" fill="none" d="M194.975,78.254c71.302-0.621,109.908,0.035,140.885,41.017
	c7.042,9.319,13.523,20.785,17.387,32.993c19.128,60.429-17.158,110.04-55.729,129.292c1.041,1.189,2.081,2.378,3.122,3.567
	c2.526,2.229,5.053,4.458,7.579,6.687c-23.959,0.209-53.296,3.199-74.901-1.336c-33.937-7.126-57.972-24.966-73.562-50.38
	c-34.221-55.781-3.4-134.51,45.921-151.585c-1.337-1.485-2.675-2.973-4.013-4.458C199.433,82.118,197.204,80.186,194.975,78.254z"/>
<path id="Yellow-2" fill-rule="evenodd" clip-rule="evenodd" fill="#FEE600" d="M243.125,89.4
	c-8.912,3.495-18.639,2.946-26.75,6.243c-27.074,11.001-47.55,32.543-56.621,61.525c-17.212,54.99,18.344,100.7,54.837,115.917
	c10.764,4.489,27.163,10.385,44.138,7.579c40.238-6.65,66.693-25.081,80.697-57.513c25.51-59.079-12.948-111.786-55.284-128.401
	C272.645,90.238,259.257,89.314,243.125,89.4z"/>
<path fill-rule="evenodd" clip-rule="evenodd" fill="#FEE600" d="M246.246,89.4c66.302-1.012,122.973,62.486,93.626,131.968
	c-14.848,35.155-41.11,52.181-84.709,59.296c-15.29,2.496-31.114-3.86-41.017-8.024c-35.233-14.814-71.381-60.246-54.392-114.581
	c9.4-30.065,30.05-51.732,58.405-62.863C226.532,91.909,236.364,89.578,246.246,89.4z"/>
<path id="Black-2" fill-rule="evenodd" clip-rule="evenodd" d="M244.909,100.546c-7.133,1.485-14.268,2.972-21.4,4.458
	c-26.085,10.063-45.089,29.384-53.5,57.067c-14.783,48.651,18.441,88.078,50.38,101.205c8.915,3.665,22.732,8.474,36.559,6.242
	c34.916-5.638,59.137-21.177,71.333-49.042C356.085,156.951,308.334,100.171,244.909,100.546z"/>
<path fill-rule="evenodd" clip-rule="evenodd" d="M243.571,100.992c14.799-0.186,26.98,0.795,37.451,4.904
	c36.088,14.165,70.025,60.792,48.15,111.905c-12.072,28.208-35.386,45.784-70.442,51.271c-58.989,9.233-108.049-58-86.046-114.134
	c9.335-23.818,27.554-40.914,51.716-49.934C230.79,103.667,237.182,102.329,243.571,100.992z"/>
<path id="Yellow-S" fill-rule="evenodd" clip-rule="evenodd" fill="#FEE600" d="M244.017,112.139
	c-6.687,1.634-13.376,3.269-20.063,4.903c-23.234,9.497-35.409,26.961-43.691,51.717c10.55,9.659,21.104,19.32,31.654,28.98
	c-0.148,0-0.297,0-0.445,0c-11.145-3.716-22.293-7.431-33.438-11.146c2.83,33.913,20.868,56.556,47.259,66.875
	c45.736,17.885,90.926-15.581,97.192-52.163c-11.441-10.551-22.887-21.105-34.33-31.655c0.149-0.148,0.298-0.297,0.446-0.446
	c12.037,3.864,24.076,7.729,36.113,11.593C320.886,137.983,291.709,111.74,244.017,112.139z"/>
<path fill-rule="evenodd" clip-rule="evenodd" fill="#FEE600" d="M244.017,112.139c47.002-0.561,77.806,25.943,80.697,68.659
	c-12.333-3.864-24.671-7.729-37.005-11.593c11.59,10.848,23.185,21.699,34.775,32.546c-8.146,35.934-50.269,70.176-97.192,51.718
	c-25.984-10.221-45.059-32.981-47.259-66.875c11.441,3.714,22.887,7.43,34.33,11.146c-10.699-9.66-21.401-19.321-32.101-28.98
	c6.081-24.714,21.88-42.77,43.691-51.717C230.641,115.407,237.33,113.772,244.017,112.139z"/>
<path fill-rule="evenodd" clip-rule="evenodd" d="M247.583,123.729c-4.309,0.743-8.62,1.487-12.929,2.229
	c-14.484,4.445-25.24,12.834-32.992,24.075c-3.752,5.44-9.536,12.13-5.35,17.834c16.197,14.414,32.399,28.831,48.596,43.246
	c5.423,4.356,15.159,10.194,18.279,16.496c-0.148,0-0.297,0-0.445,0c-23.033-7.875-46.073-15.753-69.105-23.629
	c4.504,25.605,40.985,50.281,74.455,40.125c20.075-6.091,33.703-19.84,41.017-38.788c-22.735-21.101-45.478-42.208-68.213-63.308
	c0.148-0.149,0.297-0.298,0.446-0.446c22.289,7.133,44.585,14.268,66.875,21.4C303.371,140.697,276.08,123.509,247.583,123.729z"/>
<path fill-rule="evenodd" clip-rule="evenodd" d="M247.583,123.729c28.415-0.432,55.905,17.128,60.634,39.234
	c-22.438-7.132-44.883-14.267-67.322-21.4c0,0.148,0,0.297,0,0.446c22.735,21.101,45.478,42.207,68.213,63.308
	c-6.92,18.078-20.31,32.431-39.234,38.342c-33.456,10.451-72.47-12.929-76.238-39.679c23.182,7.876,46.37,15.754,69.55,23.629
	c0-0.148,0-0.296,0-0.445c-23.181-20.803-46.369-41.614-69.55-62.417c8.073-18.04,19.051-30.736,37.896-37.896
	C236.883,125.811,242.234,124.77,247.583,123.729z"/>
</svg>
